<svg width="27" height="27" viewBox="0 0 27 27" fill="none" xmlns="http://www.w3.org/2000/svg">
<g id="ep:menu">
<path id="Vector" d="M4.21875 11.8108C3.99497 11.8108 3.78036 11.7219 3.62213 11.5637C3.4639 11.4054 3.375 11.1908 3.375 10.9671V4.21875C3.375 3.99497 3.4639 3.78036 3.62213 3.62213C3.78036 3.4639 3.99497 3.375 4.21875 3.375H10.9688C11.1925 3.375 11.4071 3.4639 11.5654 3.62213C11.7236 3.78036 11.8125 3.99497 11.8125 4.21875V10.9671C11.8125 11.1908 11.7236 11.4054 11.5654 11.5637C11.4071 11.7219 11.1925 11.8108 10.9688 11.8108H4.21875ZM16.0312 11.8108C15.8075 11.8108 15.5929 11.7219 15.4346 11.5637C15.2764 11.4054 15.1875 11.1908 15.1875 10.9671V4.21875C15.1875 3.99497 15.2764 3.78036 15.4346 3.62213C15.5929 3.4639 15.8075 3.375 16.0312 3.375H22.7796C23.0033 3.375 23.218 3.4639 23.3762 3.62213C23.5344 3.78036 23.6233 3.99497 23.6233 4.21875V10.9671C23.6233 11.1908 23.5344 11.4054 23.3762 11.5637C23.218 11.7219 23.0033 11.8108 22.7796 11.8108H16.0312ZM4.21875 23.6233C3.99497 23.6233 3.78036 23.5344 3.62213 23.3762C3.4639 23.218 3.375 23.0033 3.375 22.7796V16.0296C3.375 15.8058 3.4639 15.5912 3.62213 15.4329C3.78036 15.2747 3.99497 15.1858 4.21875 15.1858H10.9688C11.1925 15.1858 11.4071 15.2747 11.5654 15.4329C11.7236 15.5912 11.8125 15.8058 11.8125 16.0296V22.7796C11.8125 23.0033 11.7236 23.218 11.5654 23.3762C11.4071 23.5344 11.1925 23.6233 10.9688 23.6233H4.21875ZM16.0312 23.6233C15.8075 23.6233 15.5929 23.5344 15.4346 23.3762C15.2764 23.218 15.1875 23.0033 15.1875 22.7796V16.0296C15.1875 15.8058 15.2764 15.5912 15.4346 15.4329C15.5929 15.2747 15.8075 15.1858 16.0312 15.1858H22.7796C23.0033 15.1858 23.218 15.2747 23.3762 15.4329C23.5344 15.5912 23.6233 15.8058 23.6233 16.0296V22.7796C23.6233 23.0033 23.5344 23.218 23.3762 23.3762C23.218 23.5344 23.0033 23.6233 22.7796 23.6233H16.0312Z" fill="#1D2A4A"/>
</g>
</svg>
