<svg width="40" height="40" viewBox="0 0 40 40" fill="none" xmlns="http://www.w3.org/2000/svg">
<rect width="40" height="40" fill="white"/>
<path d="M26 4.5C20.7615 4.5 16.5 8.7615 16.5 14C16.5 19.2385 20.7615 23.5 26.004 23.5H26.032C26.013 23.3665 26 23.2315 26 23.095C26 22.49 26.49 22 27.095 22C27.3565 22 27.609 22.0935 27.8075 22.2635L28.7635 23.083C32.7445 21.874 35.5 18.191 35.5 14C35.5 8.7615 31.2385 4.5 26 4.5ZM27.827 20.759L25.977 21C22.128 20.9875 19 17.852 19 14C19 10.14 22.14 7 26 7C29.86 7 33 10.14 33 14C33 17.162 30.874 19.9375 27.827 20.759Z" fill="#FFC700"/>
<path d="M26 4.5C20.7615 4.5 16.5 8.7615 16.5 14C16.5 19.2385 20.7615 23.5 26.004 23.5H26.032C26.013 23.3665 26 23.2315 26 23.095C26 22.49 26.49 22 27.095 22C27.3565 22 27.609 22.0935 27.8075 22.2635L28.7635 23.083C32.7445 21.874 35.5 18.191 35.5 14C35.5 8.7615 31.2385 4.5 26 4.5ZM27.827 20.759L25.977 21C22.128 20.9875 19 17.852 19 14C19 10.14 22.14 7 26 7C29.86 7 33 10.14 33 14C33 17.162 30.874 19.9375 27.827 20.759Z" fill="#FFC700"/>
<path d="M6.5 23H14.5V29H6.5V23Z" fill="#FFC700"/>
<path d="M19.091 20.5H7.5V15.5H16.6305C16.578 15.172 16.5435 14.8385 16.5255 14.5H6.5V21.5H20.1915C19.7985 21.1955 19.4315 20.8615 19.091 20.5Z" fill="black"/>
<path d="M31.3825 27.5315C31.4605 27.2195 31.5 26.899 31.5 26.5775C31.5 25.4285 31 24.341 30.1275 23.5935L28.1335 21.884C27.8445 21.6365 27.476 21.5 27.095 21.5C26.2155 21.5 25.5 22.2155 25.5 23.0945C25.5 24.128 25.988 25.123 26.8045 25.755L27.306 26.1435C27.4275 26.2385 27.5 26.386 27.5 26.5395V31C27.5 31.276 27.2755 31.5 27 31.5H25C24.8595 31.5 24.7335 31.441 24.6425 31.3475C25.148 31.107 25.5 30.596 25.5 30C25.5 29.6145 25.3495 29.266 25.11 29C25.35 28.734 25.5 28.3855 25.5 28C25.5 27.6145 25.3495 27.266 25.11 27C25.35 26.734 25.5 26.3855 25.5 26C25.5 25.349 25.0805 24.799 24.5 24.592V23.369C23.539 23.2155 22.627 22.9195 21.7845 22.4995H16.5V33.4995H22.5V31.4075C22.657 31.464 22.824 31.5 23 31.5H23.3595L22.6095 34.5H6C5.7245 34.5 5.5 34.276 5.5 34V13.5H16.5255C16.5435 13.1615 16.578 12.828 16.6305 12.5H5.5V8C5.5 7.724 5.7245 7.5 6 7.5H19.091C19.431 7.1385 19.798 6.8045 20.191 6.5H6C5.173 6.5 4.5 7.173 4.5 8V34C4.5 34.827 5.173 35.5 6 35.5H31.6405L30.5155 31L31.3825 27.5315ZM27.417 24.965C26.843 24.5205 26.5 23.8215 26.5 23.0945C26.5 22.7665 26.767 22.5 27.095 22.5C27.237 22.5 27.3745 22.551 27.482 22.643L29.4765 24.3525C30.127 24.91 30.5 25.721 30.5 26.5775C30.5 26.817 30.4705 27.056 30.4125 27.2885L29.6095 30.5H28.5V26.5395C28.5 26.079 28.2825 25.6355 27.9185 25.354L27.417 24.965ZM24.5 26C24.5 26.276 24.2755 26.5 24 26.5H23C22.7245 26.5 22.5 26.276 22.5 26C22.5 25.724 22.7245 25.5 23 25.5H24C24.2755 25.5 24.5 25.724 24.5 26ZM24.5 28C24.5 28.276 24.2755 28.5 24 28.5H23C22.7245 28.5 22.5 28.276 22.5 28C22.5 27.724 22.7245 27.5 23 27.5H24C24.2755 27.5 24.5 27.724 24.5 28ZM21.89 29C21.65 29.266 21.5 29.6145 21.5 30V32.5H17.5V23.5H18.592C18.536 23.657 18.5 23.824 18.5 24C18.5 24.827 19.173 25.5 20 25.5H21.592C21.536 25.657 21.5 25.824 21.5 26C21.5 26.3855 21.6505 26.734 21.89 27C21.65 27.266 21.5 27.6145 21.5 28C21.5 28.3855 21.6505 28.734 21.89 29ZM20 24.5C19.7245 24.5 19.5 24.276 19.5 24C19.5 23.724 19.7245 23.5 20 23.5H23.5V24.5H20ZM23 30.5C22.7245 30.5 22.5 30.276 22.5 30C22.5 29.724 22.7245 29.5 23 29.5H24C24.2755 29.5 24.5 29.724 24.5 30C24.5 30.276 24.2755 30.5 24 30.5H23ZM23.6405 34.5L24.1995 32.264C24.4315 32.4115 24.705 32.5 25 32.5H27C27.652 32.5 28.208 32.082 28.4145 31.5H29.61L30.36 34.5H23.6405Z" fill="black"/>
<path d="M26 21.5C30.1355 21.5 33.5 18.1355 33.5 14C33.5 9.8645 30.1355 6.5 26 6.5C21.8645 6.5 18.5 9.8645 18.5 14C18.5 18.1355 21.8645 21.5 26 21.5ZM26 7.5C29.584 7.5 32.5 10.416 32.5 14C32.5 17.584 29.584 20.5 26 20.5C22.416 20.5 19.5 17.584 19.5 14C19.5 10.416 22.416 7.5 26 7.5Z" fill="black"/>
<path d="M25.5 13.5H26.5V14.5H25.5V13.5Z" fill="black"/>
<path d="M28.5 13.5H29.5V14.5H28.5V13.5Z" fill="black"/>
<path d="M22.5 13.5H23.5V14.5H22.5V13.5Z" fill="black"/>
<path d="M8 8.5C7.173 8.5 6.5 9.173 6.5 10C6.5 10.827 7.173 11.5 8 11.5H12C12.827 11.5 13.5 10.827 13.5 10C13.5 9.173 12.827 8.5 12 8.5H8ZM10.5 9.5V10.5H9.5V9.5H10.5ZM7.5 10C7.5 9.724 7.7245 9.5 8 9.5H8.5V10.5H8C7.7245 10.5 7.5 10.276 7.5 10ZM12.5 10C12.5 10.276 12.2755 10.5 12 10.5H11.5V9.5H12C12.2755 9.5 12.5 9.724 12.5 10Z" fill="black"/>
<path d="M6.5 22.5H14.5V23.5H6.5V22.5Z" fill="black"/>
<path d="M6.5 24.5H14.5V25.5H6.5V24.5Z" fill="black"/>
<path d="M6.5 26.5H14.5V27.5H6.5V26.5Z" fill="black"/>
<path d="M6.5 28.5H14.5V29.5H6.5V28.5Z" fill="black"/>
<path d="M6.5 33.5H9.5V30.5H6.5V33.5ZM7.5 31.5H8.5V32.5H7.5V31.5Z" fill="black"/>
<path d="M14.5 33.5V30.5H10.5V33.5H14.5ZM11.5 31.5H13.5V32.5H11.5V31.5Z" fill="black"/>
</svg>
