<svg width="52" height="49" viewBox="0 0 52 49" fill="none" xmlns="http://www.w3.org/2000/svg">
<g id="material-symbols:add-a-photo">
<path id="Vector" d="M6.4974 44.6172C5.30573 44.6172 4.28523 44.2252 3.4359 43.4412C2.58657 42.6572 2.16262 41.7159 2.16407 40.6172V16.6172C2.16407 15.5172 2.58873 14.5752 3.43807 13.7912C4.2874 13.0072 5.30718 12.6159 6.4974 12.6172H13.3224L17.3307 8.61719H30.3307V16.6172H36.8307V22.6172H45.4974V40.6172C45.4974 41.7172 45.0727 42.6592 44.2234 43.4432C43.3741 44.2272 42.3543 44.6185 41.1641 44.6172H6.4974ZM23.8307 37.6172C26.5391 37.6172 28.8415 36.7419 30.7381 34.9912C32.6346 33.2405 33.5822 31.1159 33.5807 28.6172C33.5807 26.1172 32.6325 23.9919 30.7359 22.2412C28.8393 20.4905 26.5376 19.6159 23.8307 19.6172C21.1224 19.6172 18.82 20.4925 16.9234 22.2432C15.0268 23.9939 14.0793 26.1185 14.0807 28.6172C14.0807 31.1172 15.029 33.2425 16.9256 34.9932C18.8221 36.7439 21.1238 37.6185 23.8307 37.6172ZM23.8307 33.6172C22.3141 33.6172 21.0321 33.1339 19.9849 32.1672C18.9377 31.2005 18.4141 30.0172 18.4141 28.6172C18.4141 27.2172 18.9377 26.0339 19.9849 25.0672C21.0321 24.1005 22.3141 23.6172 23.8307 23.6172C25.3474 23.6172 26.6293 24.1005 27.6766 25.0672C28.7238 26.0339 29.2474 27.2172 29.2474 28.6172C29.2474 30.0172 28.7238 31.2005 27.6766 32.1672C26.6293 33.1339 25.3474 33.6172 23.8307 33.6172ZM41.1641 16.6172V12.6172H36.8307V8.61719H41.1641V4.61719H45.4974V8.61719H49.8307V12.6172H45.4974V16.6172H41.1641Z" fill="#1D2A4A"/>
</g>
</svg>
