<svg width="31" height="31" viewBox="0 0 31 31" fill="none" xmlns="http://www.w3.org/2000/svg">
<g id="cargo" clipPath="url(#clip0_233_57327)">
<g id="Group">
<g id="Group_2">
<g id="Group_3">
<path id="Vector" d="M21.7812 21.3052H17.9062V18.8906H21.7812V21.3052Z" fill="#FFC700"/>
</g>
</g>
<g id="Group_4">
<g id="Group_5">
<path id="Vector_2" d="M26.625 30.5078C25.5565 30.5078 24.6875 29.6388 24.6875 28.5703C24.6875 27.5018 25.5565 26.6328 26.625 26.6328C27.6935 26.6328 28.5625 27.5018 28.5625 28.5703C28.5625 29.6388 27.6935 30.5078 26.625 30.5078Z" fill="#FFC700"/>
</g>
</g>
<g id="Group_6">
<g id="Group_7">
<path id="Vector_3" d="M18.875 30.5078C17.8065 30.5078 16.9375 29.6388 16.9375 28.5703C16.9375 27.5018 17.8065 26.6328 18.875 26.6328C19.9435 26.6328 20.8125 27.5018 20.8125 28.5703C20.8125 29.6388 19.9435 30.5078 18.875 30.5078Z" fill="#FFC700"/>
</g>
</g>
<g id="Group_8">
<path id="Vector_4" d="M9.67188 6.78125H15.9687V10.6562H9.67188V6.78125Z" fill="#FFC700"/>
</g>
<g id="Group_9">
<path id="Vector_5" d="M9.67188 12.5859H15.9687V16.4609H9.67188V12.5859Z" fill="#FFC700"/>
</g>
<g id="Group_10">
<path id="Vector_6" d="M11.125 19.3672H14.0312V23.2422H11.125V19.3672Z" fill="#FFC700"/>
</g>
<g id="Group_11">
<path id="Vector_7" d="M28.4193 3.72397L27.7344 3.03906L25.1706 5.60286L24.5443 4.97656L23.8594 5.66147L25.1706 6.97267L28.4193 3.72397Z" fill="black"/>
<path id="Vector_8" d="M8.60495 6.58077L7.82995 6L5.25889 9.42792L4.68491 8.85394L4 9.53884L5.36352 10.9028L8.60495 6.58077Z" fill="black"/>
<path id="Vector_9" d="M20.7422 28.0859C20.7829 28.2419 20.811 28.4022 20.811 28.5703C20.811 28.7384 20.7829 28.8987 20.7422 29.0547H24.7548C24.7141 28.8987 24.686 28.7384 24.686 28.5703C24.686 28.4022 24.7141 28.2419 24.7548 28.0859H20.7422Z" fill="black"/>
<path id="Vector_10" d="M26.625 20.3359V9.16673C28.8013 8.92503 30.5 7.07617 30.5 4.83594C30.5 2.43198 28.5441 0.476562 26.1406 0.476562C23.9009 0.476562 22.0515 2.17527 21.8098 4.35156H19.8438V3.86719C19.8438 2.53177 18.7573 1.44531 17.4219 1.44531H14.9109C14.7103 0.882953 14.1775 0.476562 13.5469 0.476562H6.76562C6.13497 0.476562 5.60216 0.882953 5.40163 1.44531H2.89062C1.5552 1.44531 0.46875 2.53177 0.46875 3.86719V25.1797C0.46875 26.5151 1.5552 27.6016 2.89062 27.6016H15C15 28.4027 15.652 29.0547 16.4531 29.0547H17.0063C16.9656 28.8987 16.9375 28.7384 16.9375 28.5703C16.9375 28.4022 16.9656 28.2419 17.0063 28.0859H16.4531C16.1862 28.0859 15.9687 27.8689 15.9687 27.6016V27.1172H29.5312V27.6016C29.5312 27.8689 29.3138 28.0859 29.0469 28.0859H28.4937C28.5344 28.2419 28.5625 28.4022 28.5625 28.5703C28.5625 28.7384 28.5344 28.8987 28.4937 29.0547H29.0469C29.848 29.0547 30.5 28.4027 30.5 27.6016V22.5965L28.8047 20.3359H26.625ZM26.1406 1.44531C28.0103 1.44531 29.5312 2.96673 29.5312 4.83594C29.5312 6.70514 28.0103 8.22656 26.1406 8.22656C24.2709 8.22656 22.75 6.70514 22.75 4.83594C22.75 2.96673 24.2709 1.44531 26.1406 1.44531ZM21.8098 5.32031C22.0341 7.33773 23.6393 8.94247 25.6562 9.16673V20.3359H24.6875V18.3984H19.8438V5.32031H21.8098ZM18.875 3.86719V18.3984H17.9062V4.35156C17.9062 3.8173 17.4718 3.38281 16.9375 3.38281H15V2.41406H17.4219C18.223 2.41406 18.875 3.06603 18.875 3.86719ZM15 18.3984V24.6953H3.375V4.35156H5.40163C5.60216 4.91392 6.13497 5.32031 6.76562 5.32031H13.5469C14.1775 5.32031 14.7103 4.91392 14.9109 4.35156H16.9375V18.3984H15ZM6.28125 1.92969C6.28125 1.66231 6.49873 1.44531 6.76562 1.44531H13.5469C13.8138 1.44531 14.0312 1.66231 14.0312 1.92969V3.86719C14.0312 4.13456 13.8138 4.35156 13.5469 4.35156H6.76562C6.49873 4.35156 6.28125 4.13456 6.28125 3.86719V1.92969ZM2.89062 26.6328C2.08947 26.6328 1.4375 25.9808 1.4375 25.1797V3.86719C1.4375 3.06603 2.08947 2.41406 2.89062 2.41406H5.3125V3.38281H3.375C2.84073 3.38281 2.40625 3.8173 2.40625 4.35156V24.6953C2.40625 25.2296 2.84073 25.6641 3.375 25.6641H15V26.1484V26.6328H2.89062ZM15.9687 19.3672H23.7188V26.1484H15.9687V19.3672ZM29.5312 26.1484H24.6875V21.3047H28.3203L29.5312 22.9191V26.1484Z" fill="black"/>
<path id="Vector_11" d="M9.67188 6.28906H15.9687V7.25781H9.67188V6.28906Z" fill="black"/>
<path id="Vector_12" d="M15 8.22656H15.9687V9.19531H15V8.22656Z" fill="black"/>
<path id="Vector_13" d="M9.67188 8.22656H14.0312V9.19531H9.67188V8.22656Z" fill="black"/>
<path id="Vector_14" d="M9.67188 10.1641H15.9687V11.1328H9.67188V10.1641Z" fill="black"/>
<path id="Vector_15" d="M8.60495 12.3933L7.82995 11.8125L5.25889 15.2404L4.68491 14.6664L4 15.3513L5.36352 16.7153L8.60495 12.3933Z" fill="black"/>
<path id="Vector_16" d="M9.67188 12.1016H15.9687V13.0703H9.67188V12.1016Z" fill="black"/>
<path id="Vector_17" d="M15 14.0391H15.9687V15.0078H15V14.0391Z" fill="black"/>
<path id="Vector_18" d="M9.67188 14.0391H14.0312V15.0078H9.67188V14.0391Z" fill="black"/>
<path id="Vector_19" d="M9.67188 15.9766H15.9687V16.9453H9.67188V15.9766Z" fill="black"/>
<path id="Vector_20" d="M4.34375 23.7266H10.1562V18.8828H4.34375V23.7266ZM5.3125 19.8516H9.1875V22.7578H5.3125V19.8516Z" fill="black"/>
<path id="Vector_21" d="M11.125 18.8828H14.0312V19.8516H11.125V18.8828Z" fill="black"/>
<path id="Vector_22" d="M11.125 20.8203H14.0312V21.7891H11.125V20.8203Z" fill="black"/>
<path id="Vector_23" d="M11.125 22.7578H14.0312V23.7266H11.125V22.7578Z" fill="black"/>
</g>
</g>
</g>
<defs>
<clipPath id="clip0_233_57327">
<rect width="31" height="31" fill="white"/>
</clipPath>
</defs>
</svg>
