<svg width="31" height="31" viewBox="0 0 31 31" fill="none" xmlns="http://www.w3.org/2000/svg">
<g id="order" clipPath="url(#clip0_233_57362)">
<g id="Group">
<path id="Vector" d="M26.6406 22.7656H19.8594V19.375H26.6406V22.7656Z" fill="#FFC700"/>
<path id="Vector_2" d="M28.5781 28.5781H23.7344V26.1562H28.5781V28.5781Z" fill="#FFC700"/>
<path id="Vector_3" d="M15.0156 22.2812H11.1406V20.3438H15.0156V22.2812Z" fill="#FFC700"/>
<path id="Vector_4" d="M15.0156 10.6562H11.1406V6.78125H15.0156V10.6562Z" fill="#FFC700"/>
<path id="Vector_5" d="M14.0469 13.5625L24.5595 3.04987L27.9494 6.43982L17.4368 16.9524L14.0469 13.5625Z" fill="#FFC700"/>
</g>
<path id="Vector_6" d="M29.0625 18.8906H21.7969V13.2787L29.6714 5.40417C30.2158 4.85973 30.5156 4.13608 30.5156 3.36641C30.5156 1.77717 29.2228 0.484375 27.6336 0.484375C26.8639 0.484375 26.1403 0.784203 25.5958 1.32816L21.7969 5.12711V3.875C21.7969 2.53958 20.7104 1.45312 19.375 1.45312H15.8953C15.6947 0.890766 15.1619 0.484375 14.5312 0.484375H7.75C7.11934 0.484375 6.58653 0.890766 6.386 1.45312H2.90625C1.57083 1.45312 0.484375 2.53958 0.484375 3.875V24.2188C0.484375 25.5542 1.57083 26.6406 2.90625 26.6406H15.9844V29.0625C15.9844 29.8637 16.6363 30.5156 17.4375 30.5156H29.0625C29.8637 30.5156 30.5156 29.8637 30.5156 29.0625V20.3438C30.5156 19.5426 29.8637 18.8906 29.0625 18.8906ZM20.8281 18.8906H19.8594V15.2162L20.8281 14.2474V18.8906ZM15.9844 20.3438V23.7344H3.39062V4.35938H6.386C6.58653 4.92173 7.11934 5.32812 7.75 5.32812H14.5312C15.1619 5.32812 15.6947 4.92173 15.8953 4.35938H18.8906V8.03384L13.6303 13.2942L12.1927 17.1275C12.1375 17.2743 12.1094 17.4283 12.1094 17.5862C12.1094 18.3055 12.6945 18.8906 13.4138 18.8906C13.5712 18.8906 13.7257 18.8625 13.8715 18.8078L17.7054 17.3697L18.8906 16.1849V18.8906H17.4375C16.6363 18.8906 15.9844 19.5426 15.9844 20.3438ZM16.0846 15.6003L24.4609 7.22397L25.4713 8.23438L17.1692 16.5366L13.5305 17.901C13.3256 17.9771 13.0781 17.8114 13.0781 17.5862C13.0781 17.5455 13.0854 17.5063 13.0994 17.469L14.4634 13.8308L22.7656 5.52866L23.776 6.53906L15.3997 14.9154L16.0846 15.6003ZM26.2807 2.01355C26.6421 1.6522 27.1226 1.45312 27.6336 1.45312C28.6886 1.45312 29.5469 2.31144 29.5469 3.36641C29.5469 3.87742 29.3478 4.35792 28.9865 4.71927L26.1562 7.54947L23.4505 4.84375L26.2807 2.01355ZM20.8281 3.875V6.09586L19.8594 7.06461V4.35938C19.8594 3.82511 19.4249 3.39062 18.8906 3.39062H15.9844V2.42188H19.375C20.1762 2.42188 20.8281 3.07384 20.8281 3.875ZM7.26562 1.9375C7.26562 1.67061 7.48263 1.45312 7.75 1.45312H14.5312C14.7986 1.45312 15.0156 1.67061 15.0156 1.9375V3.875C15.0156 4.14189 14.7986 4.35938 14.5312 4.35938H7.75C7.48263 4.35938 7.26562 4.14189 7.26562 3.875V1.9375ZM2.90625 25.6719C2.10509 25.6719 1.45312 25.0199 1.45312 24.2188V3.875C1.45312 3.07384 2.10509 2.42188 2.90625 2.42188H6.29688V3.39062H3.39062C2.85636 3.39062 2.42188 3.82511 2.42188 4.35938V23.7344C2.42188 24.2686 2.85636 24.7031 3.39062 24.7031H15.9844V25.6719H2.90625ZM29.5469 29.0625C29.5469 29.3299 29.3299 29.5469 29.0625 29.5469H17.4375C17.1701 29.5469 16.9531 29.3299 16.9531 29.0625V20.3438C16.9531 20.0764 17.1701 19.8594 17.4375 19.8594H29.0625C29.3299 19.8594 29.5469 20.0764 29.5469 20.3438V29.0625Z" fill="black"/>
<path id="Vector_7" d="M21.7969 20.8281H22.7656V22.7656H21.7969V20.8281Z" fill="black"/>
<path id="Vector_8" d="M23.7344 20.8281H24.7031V22.7656H23.7344V20.8281Z" fill="black"/>
<path id="Vector_9" d="M25.6719 27.6094H26.6406V28.5781H25.6719V27.6094Z" fill="black"/>
<path id="Vector_10" d="M23.7344 27.6094H24.7031V28.5781H23.7344V27.6094Z" fill="black"/>
<path id="Vector_11" d="M27.6094 27.6094H28.5781V28.5781H27.6094V27.6094Z" fill="black"/>
<path id="Vector_12" d="M23.7344 25.6719H28.5781V26.6406H23.7344V25.6719Z" fill="black"/>
<path id="Vector_13" d="M9.82942 5.46875L9.00259 6.29558H4.35938V11.1393H9.20312V7.46486L10.5143 6.15366L9.82942 5.46875ZM8.23438 10.1706H5.32812V7.26433H8.03384L6.78125 8.51692L6.15495 7.89062L5.47005 8.57553L6.78125 9.88673L8.23438 8.43361V10.1706Z" fill="black"/>
<path id="Vector_14" d="M4.35938 16.9531H9.20312V12.1094H4.35938V16.9531ZM5.32812 13.0781H8.23438V15.9844H5.32812V13.0781Z" fill="black"/>
<path id="Vector_15" d="M4.35938 22.7656H9.20312V17.9219H4.35938V22.7656ZM5.32812 18.8906H8.23438V21.7969H5.32812V18.8906Z" fill="black"/>
<path id="Vector_16" d="M11.1406 6.29688H15.0156V7.26562H11.1406V6.29688Z" fill="black"/>
<path id="Vector_17" d="M11.1406 8.23438H15.0156V9.20312H11.1406V8.23438Z" fill="black"/>
<path id="Vector_18" d="M11.1406 10.1719H15.0156V11.1406H11.1406V10.1719Z" fill="black"/>
<path id="Vector_19" d="M11.1406 19.8594H15.0156V20.8281H11.1406V19.8594Z" fill="black"/>
<path id="Vector_20" d="M11.1406 21.7969H15.0156V22.7656H11.1406V21.7969Z" fill="black"/>
</g>
<defs>
<clipPath id="clip0_233_57362">
<rect width="31" height="31" fill="white"/>
</clipPath>
</defs>
</svg>
