<svg xmlns="http://www.w3.org/2000/svg" width="336" height="336" viewBox="0 0 336 336" fill="none">
<g clip-path="url(#clip0_147_16558)">
<mask id="mask0_147_16558" style="mask-type:luminance" maskUnits="userSpaceOnUse" x="0" y="0" width="512" height="336">
<path d="M512 0H0V335.448H512V0Z" fill="white"/>
</mask>
<g mask="url(#mask0_147_16558)">
<path d="M503.172 335.448H8.828C3.953 335.448 0 331.495 0 326.62V247.172H512V326.62C512 331.496 508.047 335.448 503.172 335.448Z" fill="#73AF00"/>
<path d="M503.172 0H8.828C3.953 0 0 3.953 0 8.828V247.172H512V8.828C512 3.953 508.047 0 503.172 0Z" fill="#D3020D"/>
<path d="M70.621 335.448H8.828C3.953 335.448 0 331.495 0 326.62V8.828C0 3.953 3.953 0 8.828 0H70.621V335.448Z" fill="#F5F5F5"/>
<path d="M9 320.959H12.122V312.209H9V320.959ZM33.918 320.959H37.041V312.209H33.918V320.959ZM58.852 320.959H61.96V312.209H58.852V320.959ZM21.475 297.499H24.566V290.207H21.475V297.499ZM46.408 297.499H49.516V290.207H46.408V297.499ZM9 278.477H12.122V269.727H9V278.477ZM33.918 278.477H37.041V269.727H33.918V278.477ZM58.852 278.477H61.96V269.727H58.852V278.477ZM15.261 290.207H18.352V282.85H21.475V275.558H24.566V282.85H27.705V290.207H30.796V297.499H27.705V304.853H24.566V312.207H21.475V304.853H18.352V297.499H15.261V290.207ZM40.18 290.207H43.302V282.85H46.409V275.558H49.517V282.85H52.624V290.207H55.746V297.499H52.624V304.853H49.517V312.207H46.409V304.853H43.302V297.499H40.18V290.207ZM46.408 260.913V268.205H43.271V275.559H40.18V282.851H37.041V290.208H33.918V282.851H30.795V275.559H27.704V268.205H24.565V260.913H21.474V268.205H18.351V275.559H15.26V282.851H12.121V290.208H9V297.5H12.122V304.854H15.261V312.208H18.352V319.5H21.475V326.793H24.598V319.5H27.705V312.208H30.796V304.854H33.919V297.5H37.042V304.854H40.181V312.208H43.303V319.5H46.41V326.793H49.518V319.5H52.625V312.208H55.747V304.854H58.87V297.5H61.961V290.208H58.853V282.851H55.747V275.559H52.625V268.205H49.518V260.913H46.408ZM54.128 253.623H55.682V250.707H57.251V253.623H58.82V256.538H57.251V259.518H55.682V256.538H54.128V253.623ZM54.128 243.413V247.726H52.591V252.164H51.022V257.998H52.591V262.372H54.128V266.746H58.821V262.372H60.375V257.998H61.912V252.164H60.375V247.726H58.821V243.413H54.128ZM12.122 253.558H13.691V250.643H15.26V253.558H16.781V256.538H15.26V259.454H13.691V256.538H12.122V253.558ZM12.122 243.349V247.725H10.568V252.099H9V257.996H10.568V262.37H12.122V266.744H16.782V262.37H18.351V257.996H19.874V252.099H18.351V247.725H16.782V243.349H12.122ZM29.257 253.558H30.794V250.643H32.38V253.558H33.917V256.538H32.38V259.454H30.794V256.538H29.257V253.558ZM37.041 253.558H38.61V250.643H40.179V253.558H41.716V256.538H40.179V259.454H38.61V256.538H37.041V253.558ZM37.041 243.349V247.725H33.918V243.349H29.258V247.725H27.704V252.099H26.135V257.996H27.704V262.37H29.258V266.744H33.918V262.37H37.041V266.744H41.717V262.37H43.302V257.996H44.825V252.099H43.302V247.725H41.717V243.349H37.041ZM9 240.369H12.122V231.62H9V240.369ZM33.918 240.369H37.041V231.62H33.918V240.369ZM58.852 240.369H61.96V231.62H58.852V240.369ZM9 203.783H12.122V197.951H9V203.783ZM58.852 203.783H61.96V197.951H58.852V203.783ZM33.918 183.303H37.041V176.011H33.918V183.303ZM9 163.522V167.896V167.959V172.333H12.122V167.959V167.896V163.522H9ZM26.134 163.522V167.896V167.959V172.333H29.257V167.959V167.896V163.522H26.134ZM41.717 163.522V167.896V167.959V172.333H44.824V167.959V167.896V163.522H41.717ZM58.852 163.522V167.896V167.959V172.333H61.96V167.959V167.896V163.522H58.852ZM38.61 158.387V161.303H37.041V163.522H33.918V161.303H32.381V158.387H29.258V162.761H30.795V164.98H32.381V167.896V167.959V170.813H30.795V173.032H29.258V177.406H32.381V174.491H33.918V172.334H37.041V174.491H38.61V177.406H41.717V173.032H40.18V170.813H38.611V167.959V167.896V164.98H40.18V162.761H41.717V158.387H38.61ZM33.918 159.843H37.041V152.551H33.918V159.843ZM9 137.904H12.122V132.072H9V137.904ZM58.852 137.904H61.96V132.072H58.852V137.904ZM9 104.236H12.122V95.424H9V104.236ZM33.918 104.236H37.041V95.424H33.918V104.236ZM58.852 104.236H61.96V95.424H58.852V104.236ZM21.475 168.023V167.833V164.979H24.566V159.906H27.705V154.009H32.381V147.099H33.918V143.738H35.488H37.041V147.035H38.61V154.01H43.301V156.926V159.906H46.408V164.979H49.516V167.896V170.812H46.408V176.011H43.301V178.927V181.843H38.61V188.755H37.041V192.052H35.488H33.918V188.755H32.381V181.843H27.705V176.009H24.566V170.81H21.475V168.023ZM46.408 86.61V93.964H43.271V101.256H40.18V108.613H37.041V114.445V115.904H33.918V108.612H30.795V101.255H27.704V93.963H24.565V86.609H21.474V93.963H18.351V101.255H15.228V108.612H12.121V114.444V115.903H9V123.257H12.122V130.611H15.229V137.903H18.352V145.196H21.475V137.903H24.566V130.611H27.705V123.257H24.566V114.443H27.705V115.902V120.34H30.796V132.071H32.382V139.299L27.706 139.362V145.196H24.567V149.57H21.476V156.924H18.353V149.57H15.23V145.196H12.123V140.82H9V154.008H12.122V159.905H15.229V164.978H18.352V167.896V167.959V170.813H15.229V176.012H12.122V181.846H9V195.034H12.122V190.595H15.229V186.221H18.352V178.929H21.475V186.221H24.566V190.595H27.705V196.492L32.381 196.555V203.783H30.795V215.514H27.704V219.888V221.411H24.565V212.534H27.704V205.242H24.565V197.95H21.474V190.593H18.351V197.95H15.228V205.242H12.121V212.534H9V219.888H12.122V221.411V227.18H15.261V234.537H18.352V241.891H21.475V249.183H24.566V241.891H27.705V234.537H30.796V227.18H33.919V219.888H37.042V221.411V227.18H40.181V234.537H43.303V241.891H46.41V249.183H49.518V241.891H52.625V234.537H55.747V227.18H58.853V219.888H61.96V212.534H58.852V205.242H55.746V197.95H52.624V190.593H49.517V197.95H46.409V205.242H43.272V212.534H46.409V219.888V221.411H43.272V219.888V215.514H40.181V203.783H39.736H38.612V196.491H39.736H40.577H41.718H43.303V190.594H46.41V186.22H49.518V178.928H52.625V186.22H55.747V190.594H58.87V195.033H61.961V181.845H58.869V176.011H55.746V170.812H52.624V167.959V167.896V164.98H55.746V159.907H58.869V154.01H61.961V140.822H58.869V145.198H55.746V149.572H52.624V156.926H49.517V149.572H46.409V145.198H43.302V139.364H41.717H40.576H39.735H38.611V132.072H39.735H40.18V120.341H43.271V115.903V114.444H46.408V115.903V123.257H43.271V130.611H46.408V137.903H49.516V145.196H52.623V137.903H55.745V130.611H58.851V123.257H61.961V115.903H58.853V108.611H55.747V101.254H52.625V93.962H49.518V86.608H46.408V86.61ZM12.122 79.318H13.661V76.402H15.261V79.318H16.782V82.234H15.261V85.214H13.661V82.234H12.122V79.318ZM12.122 73.421H10.568V77.859H9V83.693H10.568V88.131H12.122V92.507H16.782V88.131H18.351V83.693H19.874V77.859H18.351V73.421H16.782V69.11H12.122V73.421ZM29.257 79.318H30.794V76.402H32.38V79.318H33.917V82.234H32.38V85.214H30.794V82.234H29.257V79.318ZM37.041 79.318H38.61V76.402H40.179V79.318H41.716V82.234H40.179V85.214H38.61V82.234H37.041V79.318ZM29.257 73.421H27.703V77.859H26.134V83.693H27.703V88.131H29.257V92.507H33.917V88.131H37.04V92.507H41.716V88.131H43.301V83.693H44.824V77.859H43.301V73.421H41.716V69.11H37.04V73.421H33.917V69.11H29.257V73.421ZM54.128 79.255H55.682V76.401H57.251V79.255H58.82V82.235H57.251V85.15H55.682V82.235H54.128V79.255ZM54.128 69.047V73.421H52.591V77.859H51.022V83.693H52.591V88.067H54.128V92.443H58.821V88.067H60.375V83.693H61.912V77.859H60.375V73.421H58.821V69.047H54.128ZM9 66.13H12.122V57.38H9V66.13ZM33.918 66.13H37.041V57.38H33.918V66.13ZM58.852 66.13H61.96V57.38H58.852V66.13ZM21.475 45.65H24.566V38.293H21.475V45.65ZM46.408 45.65H49.516V38.293H46.408V45.65ZM9 23.648H12.122V14.898H9V23.648ZM33.918 23.648H37.041V14.898H33.918V23.648ZM58.852 23.648H61.96V14.898H58.852V23.648ZM15.261 38.294H18.352V31.002H21.475V23.648H24.566V31.002H27.705V38.294H30.796V45.651H27.705V52.943H24.566V60.297H21.475V52.943H18.352V45.651H15.261V38.294ZM40.18 38.294H43.302V31.002H46.409V23.648H49.517V31.002H52.624V38.294H55.746V45.651H52.624V52.943H49.517V60.297H46.409V52.943H43.302V45.651H40.18V38.294ZM46.408 9V16.357H43.301V23.649H40.179V31.003H37.04V38.295H33.917V31.003H30.794V23.649H27.703V16.357H24.597V9H21.474V16.357H18.351V23.649H15.26V31.003H12.121V38.295H9V45.652H12.122V52.944H15.261V60.298H18.352V67.652H21.475V74.944H24.566V67.652H27.705V60.298H30.796V52.944H33.919V45.652H37.042V52.944H40.181V60.298H43.272V67.652H46.409V74.944H49.517V67.652H52.624V60.298H55.746V52.944H58.852V45.652H61.96V38.295H58.868V31.003H55.745V23.649H52.623V16.357H49.516V9H46.408Z" fill="#D3020D"/>
</g>
</g>
<defs>
<clipPath id="clip0_147_16558">
<rect width="336" height="336" fill="white"/>
</clipPath>
</defs>
</svg>