<svg xmlns="http://www.w3.org/2000/svg" width="194" height="193" viewBox="0 0 194 193" fill="none">
<path d="M66.456 46.4541H42.1866C43.449 36.6784 46.9693 28.8202 52.7429 22.8842C60.8028 14.6072 70.9366 10.4688 83.1468 10.4688C94.0333 10.4688 103.16 13.9179 110.528 20.8138C117.895 27.7121 121.58 35.8973 121.58 45.3742C121.58 51.2537 119.971 56.6204 116.753 61.4788C113.534 66.3372 108.858 70.2663 102.723 73.2637C107.776 74.7681 111.97 76.7141 115.388 79C92.5 101.888 80.5 113.268 53.268 140.5C52.2372 139.67 51.2184 138.775 50.2135 137.814C42.0946 130.047 37.6423 119.477 36.8613 106.101H61.8527C62.9357 112.938 65.3258 118.023 69.0255 121.349C69.6761 121.935 70.3349 122.468 71 122.95C89 104.95 82.6444 111.5 99.1444 95C98.187 93.8202 97.039 92.686 95.685 91.6152C90.4517 87.4767 82.9038 85.3475 73.0389 85.2275V63.6363C79.1122 63.1563 83.64 62.2129 86.6176 60.8036C89.5952 59.3943 91.9099 57.4603 93.5638 55.0017C95.2178 52.543 96.0436 49.9338 96.0436 47.1741C96.0436 43.5767 94.7813 40.5934 92.2543 38.2218C89.7274 35.8526 86.4194 34.6692 82.3304 34.6692C78.7228 34.6692 75.4432 35.7632 72.4962 37.9536C69.5493 40.144 67.5343 42.9767 66.4513 46.4541H66.456Z" fill="#FFC700"/>
<path style="mix-blend-mode:multiply" d="M193.08 1.08782C187.816 -4.16117 124.83 18.7499 71.8111 71.621C18.7917 124.492 -5.59093 185.897 1.0769 192.546C30.5041 163.202 167.511 26.5846 193.08 1.08782Z" fill="url(#paint0_radial_95_26790)"/>
<path d="M101.8 184.46L99.2347 174.203L88.9502 176.773L98.4647 161.246L100.33 162.389L93.6118 173.354L100.827 171.549L102.637 178.792L110.046 166.394L111.924 167.517L101.8 184.46Z" fill="black"/>
<path d="M124.513 184.46L114.388 167.517L116.266 166.394L123.675 178.792L125.485 171.549L132.7 173.354L125.983 162.389L127.847 161.246L137.362 176.773L127.077 174.203L124.513 184.46Z" fill="black"/>
<path d="M113.156 160.844C104.096 160.844 96.75 153.498 96.75 144.438C96.75 135.377 104.096 128.031 113.156 128.031C117.91 128.031 122.191 130.052 125.188 133.283V123.598L125.139 123.571C123.145 122.419 120.728 122.436 118.76 123.524C117.599 121.597 115.495 120.375 113.102 120.375C110.799 120.375 108.71 121.597 107.552 123.524C105.584 122.432 103.166 122.42 101.173 123.571L101.077 123.627C99.0841 124.777 97.8864 126.88 97.8459 129.127C95.5983 129.168 93.4961 130.365 92.3455 132.358L92.2897 132.454C91.1391 134.447 91.1544 136.867 92.2427 138.833C90.3155 139.992 89.0938 142.08 89.0938 144.382V144.492C89.0938 146.795 90.3155 148.884 92.2427 150.042C91.1533 152.008 91.1391 154.427 92.2897 156.421L92.3455 156.517C93.4972 158.51 95.5994 159.707 97.8459 159.748C97.8864 161.995 99.0841 164.098 101.077 165.248L101.173 165.304C103.166 166.454 105.586 166.439 107.553 165.351C108.713 167.278 110.818 168.5 113.211 168.5C115.513 168.5 117.602 167.278 118.761 165.351C120.727 166.439 123.145 166.454 125.139 165.304L125.236 165.248C127.228 164.097 128.426 161.994 128.467 159.748C130.715 159.707 132.818 158.51 133.967 156.517L134.023 156.421C135.175 154.428 135.159 152.008 134.07 150.042C135.997 148.881 137.219 146.785 137.219 144.438H129.562C129.562 153.498 122.217 160.844 113.156 160.844Z" fill="#FFC700"/>
<path d="M148.156 125.844H132.844V118.188H148.156V125.844Z" fill="#FFC700"/>
<path d="M106.594 144.438H104.406C104.406 139.613 108.332 135.688 113.156 135.688V137.875C109.537 137.875 106.594 140.818 106.594 144.438Z" fill="black"/>
<path d="M152.531 141.156H141.594V135.688H152.531V141.156Z" fill="#FFC700"/>
<path d="M137.219 121.469H139.406V125.844H137.219V121.469Z" fill="black"/>
<path d="M141.594 121.469H143.781V125.844H141.594V121.469Z" fill="black"/>
<path d="M152.531 141.156H150.344V138.969H152.531V141.156ZM148.156 141.156H145.969V138.969H148.156V141.156ZM143.781 141.156H141.594V138.969H143.781V141.156Z" fill="black"/>
<path d="M141.594 134.594H152.531V136.781H141.594V134.594Z" fill="black"/>
<path d="M153.625 117.094H127.375C125.566 117.094 124.094 118.566 124.094 120.375V130.808C121.007 128.337 117.147 126.938 113.156 126.938C103.507 126.938 95.6562 134.788 95.6562 144.438C95.6562 154.087 103.507 161.938 113.156 161.938C122.437 161.938 130.032 154.671 130.6 145.531H153.625C155.434 145.531 156.906 144.059 156.906 142.25V120.375C156.906 118.566 155.434 117.094 153.625 117.094ZM113.156 159.75C104.713 159.75 97.8438 152.881 97.8438 144.438C97.8438 135.994 104.713 129.125 113.156 129.125C117.267 129.125 121.224 130.812 124.094 133.744V137.198C121.741 133.655 117.719 131.312 113.156 131.312C105.919 131.312 100.031 137.2 100.031 144.438C100.031 151.675 105.919 157.562 113.156 157.562C120.097 157.562 125.781 152.144 126.236 145.316C126.593 145.448 126.974 145.531 127.375 145.531H128.413C127.849 153.464 121.23 159.75 113.156 159.75ZM124.094 144.438C124.094 150.468 119.187 155.375 113.156 155.375C107.125 155.375 102.219 150.468 102.219 144.438C102.219 138.407 107.125 133.5 113.156 133.5C119.187 133.5 124.094 138.407 124.094 144.438ZM154.719 142.25C154.719 142.854 154.229 143.344 153.625 143.344H127.375C126.771 143.344 126.281 142.854 126.281 142.25V120.375C126.281 119.771 126.771 119.281 127.375 119.281H153.625C154.229 119.281 154.719 119.771 154.719 120.375V142.25Z" fill="black"/>
<path d="M110.969 152.546L106.914 148.492L108.461 146.945L110.969 149.453L120.039 140.383L121.586 141.929L110.969 152.546Z" fill="black"/>
<defs>
<radialGradient id="paint0_radial_95_26790" cx="0" cy="0" r="1" gradientUnits="userSpaceOnUse" gradientTransform="translate(89.1917 104.758) rotate(-44.9185) scale(137.027 36.3119)">
<stop/>
<stop offset="0.03" stop-color="#181818"/>
<stop offset="0.1" stop-color="#484848"/>
<stop offset="0.17" stop-color="#747474"/>
<stop offset="0.25" stop-color="#999999"/>
<stop offset="0.33" stop-color="#B9B9B9"/>
<stop offset="0.41" stop-color="#D2D2D2"/>
<stop offset="0.51" stop-color="#E6E6E6"/>
<stop offset="0.62" stop-color="#F4F4F4"/>
<stop offset="0.76" stop-color="#FCFCFC"/>
<stop offset="1" stop-color="white"/>
</radialGradient>
</defs>
</svg>