<svg xmlns="http://www.w3.org/2000/svg" width="194" height="193" viewBox="0 0 194 193" fill="none">
<path d="M63.5671 56.1759H38.9367C39.5974 41.9018 44.0945 30.6721 52.4257 22.4845C60.7546 14.2969 71.4477 10.2031 84.5002 10.2031C92.5601 10.2031 99.6715 11.8995 105.837 15.2851C112.002 18.6754 116.933 23.5621 120.633 29.9498C124.333 36.3375 126.182 42.8311 126.182 49.4282C126.182 57.2864 124.983 62.9443 120.5 72C98.5444 93.9556 70.87 121.5 46.5 145.87H35.3291V133.814L76.3789 92.0719C86.3028 82.0562 92.9046 74.0051 96.1819 67.9162C99.4592 61.8296 101.099 56.3265 101.099 51.4069C101.099 46.4873 99.3978 42.0971 96.0026 38.7679C92.6026 35.4388 88.2282 33.7754 82.8745 33.7754C77.5209 33.7754 72.9507 35.7846 69.3407 39.8031C65.7307 43.8216 63.8054 49.28 63.5671 56.1759Z" fill="#FFC700"/>
<path style="mix-blend-mode:multiply" d="M193.08 0.830008C187.816 -4.41899 124.83 18.4921 71.8111 71.3632C18.7917 124.232 -5.59093 185.639 1.0769 192.288C30.5041 162.944 167.511 26.3268 193.08 0.830008Z" fill="url(#paint0_radial_95_26769)"/>
<g clipPath="url(#clip0_95_26769)">
<path d="M144.378 157.736C144.401 157.649 144.48 157.589 144.57 157.589H146.108V148.597H144.57C144.48 148.597 144.401 148.536 144.376 148.441L144.372 148.425C144.349 148.338 144.386 148.246 144.464 148.202L145.796 147.432L141.3 139.645L139.963 140.417C139.887 140.461 139.789 140.448 139.725 140.386C139.719 140.38 139.713 140.373 139.706 140.367C139.644 140.303 139.632 140.206 139.676 140.129L140.448 138.792L132.66 134.296L131.891 135.629C131.846 135.706 131.754 135.744 131.667 135.721L131.643 135.714C131.556 135.691 131.496 135.612 131.496 135.523V133.984H122.504V135.521C122.504 135.612 122.443 135.691 122.357 135.714L122.334 135.72C122.246 135.744 122.153 135.705 122.107 135.626L121.339 134.296L113.552 138.792L114.324 140.129C114.368 140.206 114.355 140.303 114.293 140.367C114.287 140.373 114.28 140.38 114.274 140.386C114.21 140.448 114.113 140.461 114.036 140.417L112.699 139.645L108.204 147.432L109.536 148.202C109.613 148.246 109.651 148.338 109.628 148.425L109.622 148.449C109.598 148.536 109.519 148.597 109.43 148.597H107.892V157.589H109.43C109.52 157.589 109.598 157.65 109.624 157.744L109.628 157.76C109.651 157.847 109.613 157.939 109.536 157.984L108.204 158.753L112.7 166.541L114.037 165.769C114.113 165.725 114.21 165.737 114.274 165.799C114.281 165.806 114.287 165.812 114.294 165.819C114.356 165.882 114.368 165.98 114.324 166.056L113.552 167.393L121.34 171.889L122.109 170.557C122.154 170.479 122.246 170.441 122.333 170.465L122.356 170.471C122.443 170.494 122.504 170.573 122.504 170.663V172.201H131.496V170.663C131.496 170.573 131.557 170.494 131.652 170.469L131.668 170.465C131.755 170.441 131.847 170.479 131.891 170.557L132.66 171.889L140.448 167.393L139.676 166.056C139.632 165.979 139.645 165.882 139.707 165.818C139.713 165.812 139.719 165.805 139.726 165.799C139.79 165.737 139.887 165.725 139.964 165.769L141.3 166.541L145.797 158.753L144.464 157.984C144.387 157.939 144.349 157.847 144.372 157.76L144.378 157.736ZM127 165.457C120.171 165.457 114.636 159.921 114.636 153.093C114.636 146.264 120.171 140.728 127 140.728C133.828 140.728 139.364 146.264 139.364 153.093C139.364 159.921 133.828 165.457 127 165.457Z" fill="#FFC700"/>
<path d="M121.38 159.837H132.62C133.86 159.837 134.868 158.828 134.868 157.589V147.902L129.633 150.52L127 146.57L124.367 150.52L119.132 147.902V157.589C119.132 158.828 120.14 159.837 121.38 159.837ZM121.38 151.539L125.137 153.418L127 150.623L128.863 153.418L132.62 151.539V157.589H121.38V151.539Z" fill="black"/>
<path d="M128.818 122.747L127 119.109L125.181 122.747H120.403L123.511 127.409L121.85 132.392L127 130.676L132.149 132.392L130.488 127.409L133.596 122.747H128.818ZM128.594 128.838L127 128.306L125.405 128.838L125.992 127.077L124.604 124.995H126.57L127 124.136L127.429 124.995H129.395L128.007 127.077L128.594 128.838Z" fill="black"/>
<path d="M143.431 122.747L141.612 119.109L139.793 122.747H135.016L138.124 127.409L136.463 132.392L141.612 130.676L146.761 132.392L145.1 127.409L148.208 122.747H143.431ZM143.207 128.838L141.612 128.306L140.017 128.838L140.604 127.077L139.216 124.995H141.183L141.612 124.136L142.041 124.995H144.008L142.62 127.077L143.207 128.838Z" fill="black"/>
<path d="M112.387 130.676L117.537 132.392L115.876 127.409L118.984 122.747H114.206L112.387 119.109L110.569 122.747H105.791L108.899 127.409L107.238 132.392L112.387 130.676ZM111.958 124.995L112.387 124.136L112.817 124.995H114.783L113.395 127.077L113.982 128.838L112.387 128.306L110.792 128.838L111.379 127.077L109.991 124.995H111.958Z" fill="black"/>
<path d="M152.852 145.338V126.116C152.852 120.538 148.314 116 142.736 116H111.264C105.686 116 101.147 120.538 101.147 126.116V145.338C98.5854 145.86 96.6514 148.13 96.6514 150.845V162.085C96.6514 165.184 99.1725 167.705 102.271 167.705H114.092L113.552 167.393L114.324 166.056C114.368 165.979 114.356 165.882 114.294 165.818C114.287 165.812 114.281 165.805 114.274 165.799C114.21 165.737 114.113 165.724 114.037 165.769L112.7 166.54L112.074 165.457H102.271C100.412 165.457 98.8994 163.944 98.8994 162.085V150.845C98.8994 148.985 100.412 147.472 102.271 147.472H108.273L108.203 147.432L109.478 145.224H103.395V126.116C103.395 121.778 106.925 118.248 111.264 118.248H142.736C147.075 118.248 150.604 121.778 150.604 126.116V145.224H144.522L145.796 147.432L145.727 147.472H151.728C153.587 147.472 155.1 148.985 155.1 150.845V162.085C155.1 163.944 153.587 165.457 151.728 165.457H141.926L141.3 166.541L139.963 165.769C139.887 165.725 139.789 165.737 139.725 165.799C139.719 165.805 139.713 165.812 139.706 165.818C139.644 165.882 139.632 165.979 139.676 166.056L140.448 167.393L139.907 167.705H151.728C154.827 167.705 157.348 165.184 157.348 162.085V150.845C157.348 148.13 155.414 145.86 152.852 145.338Z" fill="black"/>
<path d="M136.573 169.632L139.835 179.418L134.444 177.621L131.797 181.249L128.528 172.203H127.793H126.138H125.407L122.194 181.238L119.556 177.621L114.165 179.418L117.427 169.632L115.439 168.484L110.61 182.972L118.708 180.273L122.886 186.002L126.972 174.511L131.121 185.991L135.292 180.273L143.389 182.972L138.56 168.484L136.573 169.632Z" fill="black"/>
<path d="M127 166.578C134.437 166.578 140.488 160.527 140.488 153.09C140.488 145.652 134.437 139.602 127 139.602C119.562 139.602 113.512 145.652 113.512 153.09C113.512 160.527 119.562 166.578 127 166.578ZM127 141.85C133.198 141.85 138.24 146.892 138.24 153.09C138.24 159.288 133.198 164.33 127 164.33C120.802 164.33 115.76 159.288 115.76 153.09C115.76 146.892 120.802 141.85 127 141.85Z" fill="black"/>
</g>
<defs>
<radialGradient id="paint0_radial_95_26769" cx="0" cy="0" r="1" gradientUnits="userSpaceOnUse" gradientTransform="translate(92.6783 104.576) rotate(-44.9185) scale(146.927 38.9355)">
<stop/>
<stop offset="0.03" stop-color="#181818"/>
<stop offset="0.1" stop-color="#484848"/>
<stop offset="0.17" stop-color="#747474"/>
<stop offset="0.25" stop-color="#999999"/>
<stop offset="0.33" stop-color="#B9B9B9"/>
<stop offset="0.41" stop-color="#D2D2D2"/>
<stop offset="0.51" stop-color="#E6E6E6"/>
<stop offset="0.62" stop-color="#F4F4F4"/>
<stop offset="0.76" stop-color="#FCFCFC"/>
<stop offset="1" stop-color="white"/>
</radialGradient>
<clipPath id="clip0_95_26769">
<rect width="70" height="70" fill="white" transform="translate(92 116)"/>
</clipPath>
</defs>
</svg>