<svg width="20" height="20" viewBox="0 0 20 20" fill="none" xmlns="http://www.w3.org/2000/svg">
<rect width="20" height="20" fill="white"/>
<path d="M9.2257 11.8062H5.61279V10.2578H9.2257V11.8062Z" fill="#FFC700"/>
<path d="M11.8063 4.06401H8.19336V2.51562H11.8063V4.06401Z" fill="#FFC700"/>
<path d="M7.16126 16.9674H3.03223V14.3867H7.16126V16.9674Z" fill="#FFC700"/>
<path d="M9.74183 9.22518H5.61279V6.64453H9.74183V9.22518Z" fill="#FFC700"/>
<path d="M16.9679 16.9674H13.355V14.3867H16.9679V16.9674Z" fill="#FFC700"/>
<path d="M6.64502 10.7734H7.16115V11.8057H6.64502V10.7734Z" fill="black"/>
<path d="M7.67725 10.7734H8.19338V11.8057H7.67725V10.7734Z" fill="black"/>
<path d="M17.2258 9.74194H15.3719C15.4008 9.66091 15.4194 9.57472 15.4194 9.48387V2.77419C15.4194 2.3474 15.072 2 14.6452 2H5.35484C4.92805 2 4.58065 2.3474 4.58065 2.77419V9.48387C4.58065 9.57472 4.59917 9.66091 4.62815 9.74194H2.77419C2.3474 9.74194 2 10.0893 2 10.5161V17.2258C2 17.6526 2.3474 18 2.77419 18H17.2258C17.6526 18 18 17.6526 18 17.2258V10.5161C18 10.0893 17.6526 9.74194 17.2258 9.74194ZM5.09677 9.48387V2.77419C5.09677 2.63206 5.2127 2.51613 5.35484 2.51613H14.6452C14.7873 2.51613 14.9032 2.63206 14.9032 2.77419V9.48387C14.9032 9.62601 14.7873 9.74194 14.6452 9.74194H5.35484C5.2127 9.74194 5.09677 9.62601 5.09677 9.48387ZM11.8065 17.4839H2.77419C2.63206 17.4839 2.51613 17.3682 2.51613 17.2258V10.5161C2.51613 10.3737 2.63206 10.2581 2.77419 10.2581H12.0645C12.2067 10.2581 12.3226 10.3737 12.3226 10.5161V17.2258C12.3226 17.3682 12.2067 17.4839 12.0645 17.4839H11.8065ZM17.4839 17.2258C17.4839 17.3682 17.3679 17.4839 17.2258 17.4839H12.7912C12.8202 17.4028 12.8387 17.3167 12.8387 17.2258V10.5161C12.8387 10.4253 12.8202 10.3391 12.7912 10.2581H17.2258C17.3679 10.2581 17.4839 10.3737 17.4839 10.5161V17.2258Z" fill="black"/>
<path d="M4.06445 15.418H6.12897V15.9341H4.06445V15.418Z" fill="black"/>
<path d="M9.22559 3.03125H9.74171V4.06351H9.22559V3.03125Z" fill="black"/>
<path d="M10.2583 3.03125H10.7744V4.06351H10.2583V3.03125Z" fill="black"/>
<path d="M6.64502 7.67578H8.70954V8.19191H6.64502V7.67578Z" fill="black"/>
<path d="M14.3872 15.418H15.9356V15.9341H14.3872V15.418Z" fill="black"/>
</svg>
