<svg width="90" height="107" viewBox="0 0 90 107" fill="none" xmlns="http://www.w3.org/2000/svg">
<path d="M54.9779 26.9141L22.4795 36.8739V45.8892L34.3956 49.7529V41.6815L67.9772 31.0356L54.9779 26.9141Z" fill="#008EB0"/>
<path d="M22.4795 66.4922V75.5075L34.3956 79.3712V70.3559L22.4795 66.4922Z" fill="#008EB0"/>
<path d="M45.2286 22.6602L11.647 33.3073V73.9239L44.9493 84.4805L45.2286 84.5692L78.8103 73.9227V33.3073L45.2286 22.6602ZM73.5229 34.2965L45.2286 43.2665L16.9343 34.2965L45.2286 25.3259L73.5229 34.2965ZM13.8135 35.9731L44.1453 45.5902V81.5608L13.8135 71.943V35.9731ZM46.3119 81.5595V45.5889L76.6437 35.9718V71.943L46.3119 81.5595Z" fill="black"/>
<path d="M72.311 67.7812H74.4776V70.357H72.311V67.7812Z" fill="black"/>
<path d="M67.9775 69.0703H70.1441V71.6461H67.9775V69.0703Z" fill="black"/>
<path d="M63.644 70.3594H65.8106V72.9352H63.644V70.3594Z" fill="black"/>
</svg>
