<svg width="31" height="31" viewBox="0 0 31 31" fill="none" xmlns="http://www.w3.org/2000/svg">
<g id="customer-service" clipPath="url(#clip0_233_57398)">
<g id="Group">
<path id="Vector" d="M23.9609 9.5C23.8639 9.5 23.7664 9.4715 23.6819 9.415C23.5184 9.305 23.4349 9.11 23.4679 8.9155L23.7964 7H22.4609C21.6339 7 20.9609 6.327 20.9609 5.5V1.5C20.9609 0.673 21.6339 0 22.4609 0H29.4609C30.2879 0 30.9609 0.673 30.9609 1.5V5.5C30.9609 6.327 30.2879 7 29.4609 7H28.1044L24.2259 9.424C24.1449 9.4745 24.0529 9.5 23.9609 9.5Z" fill="#FFC700"/>
<path id="Vector_2" d="M4.99613 21.0351L6.28906 19.7422L3.28924 16.7424L1.9963 18.0353L4.99613 21.0351Z" fill="#FFC700"/>
<path id="Vector_3" d="M13.0246 29.0607L14.4636 27.7422L11.4636 24.7422L10.0156 26.0517L13.0246 29.0607Z" fill="#FFC700"/>
</g>
<path id="Vector_4" d="M24.0031 23.527C23.5986 22.3145 22.5666 21.4195 21.3086 21.1905L17.9671 20.5825V20.3235C18.5486 19.986 19.0546 19.5345 19.4576 19H20.4671C21.2941 19 21.9671 18.327 21.9671 17.5V11.5C21.9671 7.916 19.0511 5 15.4671 5C11.8831 5 8.96706 7.916 8.96706 11.5V15C8.96706 15.964 9.65256 16.7705 10.5616 16.9585C10.8421 18.3955 11.7401 19.6115 12.9671 20.3235V20.5825L9.62506 21.1905C8.36756 21.4195 7.33506 22.3145 6.93106 23.527L6.73106 24.1275L5.02806 22.4245C4.83306 22.2295 4.83306 21.912 5.02806 21.717L7.00306 19.7425L3.29606 16.0355L1.06406 18.2675C0.403062 18.9285 0.0390625 19.8075 0.0390625 20.7425C0.0390625 21.6775 0.403062 22.556 1.06406 23.217L7.82156 29.9745C8.48256 30.6355 9.36156 31 10.2966 31C11.2316 31 12.1101 30.6355 12.7556 29.9895L15.1911 27.758L14.4316 27H25.1606L24.0031 23.527ZM15.4671 22.293L13.9671 20.793V20.7695C14.4411 20.9185 14.9446 21 15.4671 21C15.9896 21 16.4931 20.9185 16.9671 20.7695V20.793L15.4671 22.293ZM20.4671 18H20.0466C20.1916 17.6695 20.3016 17.321 20.3726 16.9585C20.5866 16.914 20.7836 16.829 20.9671 16.722V17.5C20.9671 17.776 20.7426 18 20.4671 18ZM20.4671 14.139C20.7646 14.3125 20.9671 14.6315 20.9671 15C20.9671 15.3685 20.7646 15.6875 20.4671 15.861V14.139ZM9.96706 15C9.96706 14.6315 10.1696 14.3125 10.4671 14.139V15.861C10.1696 15.6875 9.96706 15.3685 9.96706 15ZM10.4671 12.5V13.071C10.2891 13.1175 10.1221 13.1875 9.96706 13.278V11.5C9.96706 8.4675 12.4346 6 15.4671 6C18.4996 6 20.9671 8.4675 20.9671 11.5V13.278C20.8121 13.1875 20.6451 13.117 20.4671 13.071V12.5H19.9671C18.4886 12.5 17.0986 11.924 16.0526 10.8785L15.4671 10.293L14.8816 10.8785C13.8356 11.924 12.4456 12.5 10.9671 12.5H10.4671ZM11.4671 16V13.481C12.9686 13.368 14.3686 12.7485 15.4671 11.704C16.5656 12.7485 17.9656 13.3685 19.4671 13.481V16C19.4671 16.729 19.2681 17.411 18.9261 18H15.4671V19H18.1041C17.3991 19.6205 16.4776 20 15.4671 20C13.2616 20 11.4671 18.2055 11.4671 16ZM5.58856 19.7425L5.04556 20.2855L2.75256 17.9925L3.29556 17.4495L5.58856 19.7425ZM10.2956 30C9.62806 30 9.00006 29.7395 8.52756 29.2675L1.77006 22.5105C1.29806 22.0385 1.03806 21.4105 1.03806 20.743C1.03806 20.075 1.29806 19.447 1.77006 18.975L2.04506 18.7L4.33806 20.993L4.32006 21.011C3.73556 21.596 3.73556 22.5475 4.32006 23.1325L7.90556 26.718C8.18906 27.001 8.56556 27.1575 8.96656 27.1575C9.36756 27.1575 9.74406 27.0015 10.0091 26.7355L10.0466 26.702L12.3501 29.0055L12.0631 29.2685C11.5911 29.7395 10.9631 30 10.2956 30ZM13.0881 28.3285L10.7896 26.03L11.4501 25.433L13.7446 27.7275L13.0881 28.3285ZM13.4316 26L11.4841 24.0525L9.32006 26.01C9.13156 26.1995 8.80206 26.1995 8.61306 26.01L7.52106 24.918L7.87906 23.843C8.16756 22.977 8.90506 22.3375 9.80356 22.1735L13.2986 21.5385L15.4671 23.707L17.6351 21.539L21.1296 22.174C22.0281 22.338 22.7656 22.977 23.0541 23.8435L23.7736 26H13.4316Z" fill="black"/>
<path id="Vector_5" d="M28.9609 2H22.9609V3H28.9609V2Z" fill="black"/>
<path id="Vector_6" d="M26.9609 4H22.9609V5H26.9609V4Z" fill="black"/>
<path id="Vector_7" d="M28.9609 4H27.9609V5H28.9609V4Z" fill="black"/>
<path id="Vector_8" d="M4.72506 12.4285L4.21056 11.571L2.85556 12.384C4.27256 6.6175 9.45806 2.5 15.4676 2.5C16.7811 2.5 18.0771 2.695 19.3196 3.08L19.6156 2.125C18.2771 1.71 16.8816 1.5 15.4676 1.5C8.93456 1.5 3.30706 6.019 1.84406 12.3225L0.896562 10.743L0.0390625 11.2575L1.79656 14.186L4.72506 12.4285Z" fill="black"/>
<path id="Vector_9" d="M30.7195 11.07L27.791 9.3125L26.0335 12.241L26.891 12.7555L27.766 11.297C28.2265 12.6445 28.462 14.054 28.462 15.4985C28.462 18.472 27.432 21.379 25.5625 23.6835L26.339 24.3135C28.353 21.8315 29.462 18.7005 29.462 15.4985C29.462 13.969 29.2155 12.4755 28.735 11.0455L30.2045 11.927L30.7195 11.07Z" fill="black"/>
</g>
<defs>
<clipPath id="clip0_233_57398">
<rect width="31" height="31" fill="white"/>
</clipPath>
</defs>
</svg>
