<svg width="34" height="34" viewBox="0 0 34 34" fill="none" xmlns="http://www.w3.org/2000/svg">
<g id="fluent:delete-28-regular">
<path id="Vector" d="M13.977 7.31476H20.0296C20.0296 6.51213 19.7108 5.74238 19.1432 5.17483C18.5757 4.60729 17.8059 4.28845 17.0033 4.28845C16.2007 4.28845 15.4309 4.60729 14.8634 5.17483C14.2958 5.74238 13.977 6.51213 13.977 7.31476ZM12.1612 7.31476C12.1612 6.03056 12.6713 4.79895 13.5794 3.89088C14.4875 2.98281 15.7191 2.47266 17.0033 2.47266C18.2875 2.47266 19.5191 2.98281 20.4272 3.89088C21.3352 4.79895 21.8454 6.03056 21.8454 7.31476H29.4112C29.652 7.31476 29.8829 7.41041 30.0532 7.58068C30.2234 7.75094 30.3191 7.98187 30.3191 8.22266C30.3191 8.46345 30.2234 8.69437 30.0532 8.86463C29.8829 9.0349 29.652 9.13055 29.4112 9.13055H27.8254L26.3522 26.8079C26.245 28.0938 25.6585 29.2926 24.7089 30.1664C23.7593 31.0402 22.516 31.5252 21.2256 31.5253H12.781C11.4905 31.5252 10.2473 31.0402 9.29769 30.1664C8.34811 29.2926 7.76158 28.0938 7.65439 26.8079L6.18118 9.13055H4.59539C4.35461 9.13055 4.12368 9.0349 3.95342 8.86463C3.78315 8.69437 3.6875 8.46345 3.6875 8.22266C3.6875 7.98187 3.78315 7.75094 3.95342 7.58068C4.12368 7.41041 4.35461 7.31476 4.59539 7.31476H12.1612ZM9.46413 26.6566C9.53336 27.4887 9.91278 28.2644 10.5272 28.8299C11.1415 29.3954 11.946 29.7093 12.781 29.7095H21.2256C22.0606 29.7093 22.8651 29.3954 23.4794 28.8299C24.0938 28.2644 24.4732 27.4887 24.5424 26.6566L26.0048 9.13055H8.00303L9.46413 26.6566ZM14.2796 13.3674C14.5204 13.3674 14.7513 13.463 14.9216 13.6333C15.0918 13.8036 15.1875 14.0345 15.1875 14.2753V24.5648C15.1875 24.8056 15.0918 25.0365 14.9216 25.2067C14.7513 25.377 14.5204 25.4727 14.2796 25.4727C14.0388 25.4727 13.8079 25.377 13.6376 25.2067C13.4674 25.0365 13.3717 24.8056 13.3717 24.5648V14.2753C13.3717 14.0345 13.4674 13.8036 13.6376 13.6333C13.8079 13.463 14.0388 13.3674 14.2796 13.3674ZM20.6349 14.2753C20.6349 14.0345 20.5392 13.8036 20.369 13.6333C20.1987 13.463 19.9678 13.3674 19.727 13.3674C19.4862 13.3674 19.2553 13.463 19.085 13.6333C18.9147 13.8036 18.8191 14.0345 18.8191 14.2753V24.5648C18.8191 24.8056 18.9147 25.0365 19.085 25.2067C19.2553 25.377 19.4862 25.4727 19.727 25.4727C19.9678 25.4727 20.1987 25.377 20.369 25.2067C20.5392 25.0365 20.6349 24.8056 20.6349 24.5648V14.2753Z" fill="#9A9EA7"/>
</g>
</svg>
