<svg width="27" height="27" viewBox="0 0 27 27" fill="none" xmlns="http://www.w3.org/2000/svg">
<g id="material-symbols:edit-rounded">
<path id="Vector" d="M21.1323 10.1383L16.6307 5.6896L18.1136 4.2067C18.5196 3.80067 19.0185 3.59766 19.6102 3.59766C20.202 3.59766 20.7005 3.80067 21.1058 4.2067L22.5887 5.6896C22.9948 6.09563 23.2066 6.58569 23.2243 7.15978C23.2419 7.73387 23.0477 8.22358 22.6417 8.62891L21.1323 10.1383ZM4.9264 22.9282C4.62629 22.9282 4.37455 22.8266 4.17118 22.6232C3.96782 22.4198 3.86649 22.1684 3.86719 21.869V18.8768C3.86719 18.7355 3.89367 18.5985 3.94663 18.4658C3.99959 18.333 4.07903 18.2141 4.18495 18.1088L15.0948 7.19897L19.5965 11.7006L8.6866 22.6105C8.58068 22.7164 8.46169 22.7958 8.32964 22.8488C8.1976 22.9018 8.06061 22.9282 7.91867 22.9282H4.9264Z" fill="#008EB0"/>
</g>
</svg>
