<svg width="20" height="20" viewBox="0 0 20 20" fill="none" xmlns="http://www.w3.org/2000/svg">
<rect width="20" height="20" fill="white"/>
<path d="M5.87087 6.13042C5.44403 6.13042 5.09668 5.78306 5.09668 5.35622C5.09668 4.92939 5.44403 4.58203 5.87087 4.58203C6.29771 4.58203 6.64507 4.92939 6.64507 5.35622C6.64507 5.78306 6.29771 6.13042 5.87087 6.13042Z" fill="#FFC700"/>
<path d="M16.1936 12.8374C15.7668 12.8374 15.4194 12.4901 15.4194 12.0633C15.4194 11.6364 15.7668 11.2891 16.1936 11.2891C16.6205 11.2891 16.9678 11.6364 16.9678 12.0633C16.9678 12.4901 16.6205 12.8374 16.1936 12.8374Z" fill="#FFC700"/>
<path d="M12.8389 7.16028C11.7006 7.16028 10.7744 6.23409 10.7744 5.09577C10.7744 3.95744 11.7006 3.03125 12.8389 3.03125C13.9773 3.03125 14.9034 3.95744 14.9034 5.09577C14.9034 6.23409 13.9773 7.16028 12.8389 7.16028Z" fill="#FFC700"/>
<path d="M11.5482 17.9996C10.552 17.9996 9.7417 17.189 9.7417 16.1932C9.7417 15.1973 10.552 14.3867 11.5482 14.3867C12.5443 14.3867 13.3546 15.1973 13.3546 16.1932C13.3546 17.189 12.5443 17.9996 11.5482 17.9996ZM11.5482 15.677C11.2635 15.677 11.032 15.9085 11.032 16.1932C11.032 16.4778 11.2635 16.7093 11.5482 16.7093C11.8328 16.7093 12.0643 16.4778 12.0643 16.1932C12.0643 15.9085 11.8328 15.677 11.5482 15.677Z" fill="#FFC700"/>
<path d="M5.35479 17.9996C4.35866 17.9996 3.54834 17.189 3.54834 16.1932C3.54834 15.1973 4.35866 14.3867 5.35479 14.3867C6.35092 14.3867 7.16124 15.1973 7.16124 16.1932C7.16124 17.189 6.35092 17.9996 5.35479 17.9996ZM5.35479 15.677C5.07015 15.677 4.83866 15.9085 4.83866 16.1932C4.83866 16.4778 5.07015 16.7093 5.35479 16.7093C5.63944 16.7093 5.87092 16.4778 5.87092 16.1932C5.87092 15.9085 5.63944 15.677 5.35479 15.677Z" fill="#FFC700"/>
<path d="M7.1405 16.4531C7.11418 16.6353 7.06102 16.8087 6.98438 16.9693H9.91857C9.84192 16.8087 9.78876 16.6353 9.76244 16.4531H7.1405Z" fill="black"/>
<path d="M16.4403 10.2769C16.4441 10.1845 16.4516 10.0921 16.4516 10C16.4516 8.82374 16.1306 7.68026 15.5277 6.67871C15.7917 6.21419 15.9355 5.68439 15.9355 5.14735V5.09677C15.9355 3.38916 14.5463 2 12.8387 2C11.6934 2 10.6934 2.62658 10.1577 3.55355C9.15716 3.53058 8.14142 3.744 7.23458 4.17368C6.90297 3.79148 6.41523 3.54839 5.87097 3.54839C4.87484 3.54839 4.06452 4.35897 4.06452 5.35484C4.06452 5.74348 4.19303 6.12826 4.42581 6.43845L4.53265 6.5809C3.93626 7.5329 3.60232 8.61652 3.55794 9.74194H3.03226C2.74761 9.74194 2.51613 9.97342 2.51613 10.2581V15.4194C2.23148 15.4194 2 15.6508 2 15.9355V16.4516C2 16.7363 2.23148 16.9677 2.51613 16.9677H3.72516C3.64852 16.8072 3.59535 16.6338 3.56903 16.4516H2.51613V15.9355H3.56903C3.59535 15.7533 3.64852 15.5799 3.72516 15.4194H3.03226V10.2581H5.09677V12.224L6.3871 11.5788L7.67742 12.224V10.2581H9.74194V15.4194H6.98452C7.06116 15.5799 7.11432 15.7533 7.14065 15.9355H9.76258C9.78813 15.7574 9.84052 15.5886 9.91406 15.4312C10.0008 15.2459 10.1164 15.0764 10.2581 14.9316V11.8065H12.6937C12.8121 11.8065 12.9154 11.887 12.944 12.0018L13.0243 12.3226H11.8065C11.5218 12.3226 11.2903 12.5541 11.2903 12.8387V13.3548C11.2903 13.6395 11.5218 13.871 11.8065 13.871H13.4114L13.7985 15.4194H13.1781C13.2547 15.5799 13.3079 15.7533 13.3342 15.9355H13.871V16.4516H13.3342C13.3079 16.6338 13.2547 16.8072 13.1781 16.9677H13.871C14.1556 16.9677 14.3871 16.7363 14.3871 16.4516V15.7409C14.3871 15.6779 14.3794 15.615 14.3641 15.553L14.199 14.8924C14.5835 14.5623 14.9265 14.1902 15.223 13.7809L16.1935 15.0754L17.6387 13.1484C17.8717 12.8379 18 12.4529 18 12.0645C18 11.1525 17.3197 10.3979 16.4403 10.2769ZM12.8387 2.51613C14.2617 2.51613 15.4194 3.67381 15.4194 5.09677V5.1471C15.4194 5.72258 15.2235 6.28903 14.8679 6.74142L12.8387 9.32439L10.8095 6.74142C10.4539 6.28903 10.2581 5.72284 10.2581 5.1471V5.09677C10.2581 3.67381 11.4157 2.51613 12.8387 2.51613ZM5.87097 4.06452C6.58245 4.06452 7.16129 4.64335 7.16129 5.35484C7.16129 5.63226 7.06968 5.90735 6.90323 6.12877L5.87097 7.50529L4.83871 6.12877C4.67226 5.90735 4.58065 5.63226 4.58065 5.35484C4.58065 4.64335 5.15948 4.06452 5.87097 4.06452ZM7.16129 11.3889L6.3871 11.0018L5.6129 11.3889V10.2581H7.16129V11.3889ZM11.8065 13.3548V12.8387H13.1533L13.2823 13.3548H11.8065ZM14.0581 14.329L13.4449 11.8766C13.3585 11.5316 13.0495 11.2903 12.6937 11.2903H10.2581V10.2581C10.2581 9.97342 10.0266 9.74194 9.74194 9.74194H4.07381C4.1151 8.78039 4.38452 7.85239 4.86529 7.02477L5.87097 8.36568L7.31613 6.43871C7.54916 6.12826 7.67742 5.74323 7.67742 5.35484C7.67742 5.08929 7.61832 4.83768 7.51484 4.61032C8.27097 4.26013 9.07871 4.07742 9.92155 4.06684C9.80748 4.38968 9.74194 4.73523 9.74194 5.09677V5.1471C9.74194 5.83794 9.97703 6.51768 10.4036 7.06039L12.8387 10.1595L15.2052 7.14761C15.6834 8.01884 15.9355 8.9969 15.9355 10C15.9355 10.0932 15.9283 10.1868 15.9241 10.2805C15.0557 10.4114 14.3871 11.1603 14.3871 12.0645C14.3871 12.4532 14.5156 12.8379 14.7484 13.1481L14.8973 13.3468C14.6529 13.7037 14.3734 14.0335 14.0581 14.329ZM17.2258 12.8385L16.1935 14.215L15.1613 12.8385C14.9948 12.617 14.9032 12.3419 14.9032 12.0645C14.9032 11.353 15.4821 10.7742 16.1935 10.7742C16.905 10.7742 17.4839 11.353 17.4839 12.0645C17.4839 12.3419 17.3923 12.617 17.2258 12.8385Z" fill="black"/>
<path d="M8.19336 8.71094H8.70949V9.22707H8.19336V8.71094Z" fill="black"/>
<path d="M9.22559 8.71094H9.74171V9.22707H9.22559V8.71094Z" fill="black"/>
<path d="M10.2583 8.71094H10.7744V9.22707H10.2583V8.71094Z" fill="black"/>
<path d="M11.5486 15.418C11.1218 15.418 10.7744 15.7653 10.7744 16.1922C10.7744 16.619 11.1218 16.9664 11.5486 16.9664C11.9754 16.9664 12.3228 16.619 12.3228 16.1922C12.3228 15.7653 11.9754 15.418 11.5486 15.418ZM11.5486 16.4502C11.4064 16.4502 11.2905 16.3346 11.2905 16.1922C11.2905 16.0497 11.4064 15.9341 11.5486 15.9341C11.6908 15.9341 11.8067 16.0497 11.8067 16.1922C11.8067 16.3346 11.6908 16.4502 11.5486 16.4502Z" fill="black"/>
<path d="M5.35476 15.418C4.92792 15.418 4.58057 15.7653 4.58057 16.1922C4.58057 16.619 4.92792 16.9664 5.35476 16.9664C5.7816 16.9664 6.12895 16.619 6.12895 16.1922C6.12895 15.7653 5.7816 15.418 5.35476 15.418ZM5.35476 16.4502C5.21257 16.4502 5.0967 16.3346 5.0967 16.1922C5.0967 16.0497 5.21257 15.9341 5.35476 15.9341C5.49695 15.9341 5.61282 16.0497 5.61282 16.1922C5.61282 16.3346 5.49695 16.4502 5.35476 16.4502Z" fill="black"/>
</svg>
