<svg xmlns="http://www.w3.org/2000/svg" width="1229" height="490" viewBox="0 0 1229 490" fill="none">
<path d="M646.38 5.91016L684.359 261.3H616.49L612.93 215.4H589.169L585.18 261.3H516.52L550.4 5.91016H646.39H646.38ZM611.18 170.13C607.82 141.2 604.45 105.45 601.06 62.8602C594.29 111.76 590.04 147.52 588.31 170.13H611.169H611.18Z" fill="#FFC700"/>
<path d="M865.019 5.91016V176.59C865.019 195.94 864.389 209.54 863.129 217.37C861.869 225.2 858.129 233.25 851.929 241.5C845.719 249.76 837.549 256.01 827.399 260.27C817.249 264.53 805.289 266.66 791.509 266.66C776.259 266.66 762.799 264.14 751.129 259.09C739.459 254.04 730.729 247.47 724.939 239.37C719.149 231.27 715.739 222.73 714.689 213.74C713.639 204.75 713.109 185.85 713.109 157.03V5.91016H779.519V197.42C779.519 208.57 780.119 215.69 781.329 218.8C782.539 221.9 784.979 223.45 788.669 223.45C792.869 223.45 795.579 221.74 796.789 218.32C797.999 214.9 798.599 206.83 798.599 194.11V5.91016H865.009H865.019Z" fill="#FFC700"/>
<path d="M1042.92 5.91016V57.0202H1003.48V261.3H937.069V57.0202H897.789V5.91016H1042.92Z" fill="#FFC700"/>
<path d="M1228.23 155.461C1228.23 181.121 1227.62 199.291 1226.42 209.961C1225.21 220.631 1221.42 230.391 1215.06 239.221C1208.7 248.051 1200.1 254.841 1189.27 259.571C1178.44 264.301 1165.82 266.671 1151.41 266.671C1137 266.671 1125.46 264.431 1114.58 259.971C1103.7 255.501 1094.94 248.801 1088.32 239.861C1081.7 230.921 1077.75 221.191 1076.49 210.681C1075.23 200.161 1074.6 181.761 1074.6 155.471V111.771C1074.6 86.1106 1075.2 67.9405 1076.41 57.2705C1077.62 46.6005 1081.4 36.8405 1087.77 28.0105C1094.13 19.1805 1102.73 12.3905 1113.56 7.66055C1124.39 2.93055 1137.01 0.560547 1151.42 0.560547C1165.09 0.560547 1177.37 2.80055 1188.25 7.26055C1199.13 11.7305 1207.89 18.4405 1214.51 27.3705C1221.14 36.3105 1225.08 46.0406 1226.34 56.5506C1227.6 67.0706 1228.23 85.4705 1228.23 111.761V155.461ZM1161.82 71.5406C1161.82 59.6606 1161.16 52.0605 1159.85 48.7505C1158.53 45.4405 1155.83 43.7805 1151.73 43.7805C1148.26 43.7805 1145.6 45.1206 1143.76 47.8006C1141.92 50.4806 1141 58.4005 1141 71.5406V190.801C1141 205.631 1141.6 214.781 1142.81 218.251C1144.02 221.721 1146.83 223.461 1151.25 223.461C1155.67 223.461 1158.66 221.461 1159.93 217.461C1161.19 213.461 1161.82 203.951 1161.82 188.911V71.5406Z" fill="#FFC700"/>
<path d="M516.98 296.4H566.081C581.591 296.4 593.33 297.61 601.32 300.02C609.31 302.44 615.76 307.32 620.67 314.68C625.58 322.04 628.031 333.9 628.031 350.25C628.031 361.31 626.301 369.02 622.831 373.38C619.361 377.74 612.52 381.09 602.31 383.43C613.69 386 621.401 390.27 625.461 396.24C629.511 402.2 631.54 411.35 631.54 423.67V441.21C631.54 454 630.08 463.47 627.16 469.63C624.24 475.79 619.58 480 613.19 482.26C606.8 484.52 593.71 485.65 573.91 485.65H516.98V296.4ZM566.19 328.78V370.86C568.29 370.78 569.93 370.74 571.1 370.74C575.93 370.74 579.011 369.55 580.331 367.17C581.651 364.79 582.32 357.99 582.32 346.77C582.32 340.85 581.77 336.7 580.68 334.32C579.59 331.94 578.17 330.44 576.41 329.82C574.66 329.2 571.25 328.85 566.18 328.77L566.19 328.78ZM566.19 400.32V453.27C573.13 453.04 577.551 451.95 579.461 450C581.371 448.05 582.32 443.26 582.32 435.62V417.97C582.32 409.87 581.46 404.96 579.75 403.24C578.03 401.53 573.51 400.55 566.19 400.32Z" fill="white"/>
<path d="M712.05 296.4V485.65H662.84V296.4H712.05Z" fill="white"/>
<path d="M827.739 296.4V334.27L791.089 447.78H827.739V485.65H737.029V458.18L774.909 334.27H741.479V296.4H827.749H827.739Z" fill="white"/>
<path d="M964.011 296.4V485.65H920.881L895.281 399.61V485.65H854.131V296.4H895.281L922.871 381.62V296.4H964.021H964.011Z" fill="white"/>
<path d="M997.42 296.4H1079.48V334.27H1046.63V370.16H1077.37V406.16H1046.63V447.78H1082.75V485.65H997.42V296.4Z" fill="white"/>
<path d="M1214.81 353.68H1169.1V339.65C1169.1 333.1 1168.52 328.94 1167.35 327.14C1166.18 325.35 1164.23 324.45 1161.51 324.45C1158.55 324.45 1156.31 325.66 1154.79 328.08C1153.27 330.5 1152.51 334.16 1152.51 339.08C1152.51 345.4 1153.36 350.15 1155.07 353.35C1156.7 356.55 1161.34 360.41 1168.98 364.92C1190.89 377.92 1204.68 388.59 1210.37 396.93C1216.06 405.27 1218.9 418.71 1218.9 437.26C1218.9 450.74 1217.32 460.68 1214.17 467.07C1211.01 473.46 1204.92 478.82 1195.88 483.14C1186.84 487.47 1176.32 489.63 1164.32 489.63C1151.15 489.63 1139.91 487.13 1130.6 482.15C1121.29 477.16 1115.19 470.81 1112.31 463.1C1109.43 455.38 1107.98 444.44 1107.98 430.25V417.86H1153.69V440.89C1153.69 447.98 1154.33 452.54 1155.62 454.57C1156.91 456.6 1159.19 457.61 1162.46 457.61C1165.73 457.61 1168.17 456.32 1169.77 453.75C1171.37 451.18 1172.17 447.36 1172.17 442.29C1172.17 431.15 1170.65 423.86 1167.61 420.43C1164.49 417 1156.82 411.27 1144.58 403.25C1132.34 395.15 1124.24 389.26 1120.27 385.6C1116.3 381.94 1113 376.87 1110.39 370.4C1107.78 363.93 1106.47 355.67 1106.47 345.62C1106.47 331.12 1108.32 320.53 1112.02 313.82C1115.72 307.12 1121.7 301.88 1129.96 298.1C1138.22 294.32 1148.2 292.43 1159.89 292.43C1172.67 292.43 1183.56 294.5 1192.56 298.63C1201.56 302.76 1207.52 307.96 1210.44 314.24C1213.36 320.51 1214.82 331.17 1214.82 346.21V353.69L1214.81 353.68Z" fill="white"/>
<path d="M442.2 0.289062H46.8C20.95 0.289062 0 21.2391 0 47.0891V442.489C0 463.399 13.71 481.099 32.63 487.099L169.08 40.2091H327.33C379.74 40.3491 405.95 69.0591 405.95 126.339V184.439C405.95 232.479 378.52 238.839 373.63 241.369C405.95 248.919 405.95 274.889 405.95 301.719V363.449C405.95 420.589 378.49 449.229 323.57 449.369H236.4V333.269L295.42 304.939V391.189H321.28C338.38 391.189 346.93 381.949 346.93 363.449V301.719C346.93 288.649 341.58 277.469 330.87 273.299C329.72 272.829 328.21 272.449 326.34 272.159C319.62 271.109 312.74 271.859 306.32 274.129L139.36 351.969L94.34 489.289H442.19C468.04 489.289 488.99 468.339 488.99 442.489V47.0891C488.99 21.2391 468.04 0.289062 442.19 0.289062H442.2Z" fill="#FFC700"/>
<path d="M346.93 187.86V126.34C346.93 107.71 338.38 98.4004 321.28 98.4004H213.96L162.59 278.68L344.97 199.91C346.27 196.42 346.93 192.42 346.93 187.87V187.86ZM295.42 196.61L236.4 220.73V122.52H295.42V196.61Z" fill="#FFC700"/>
</svg>