<svg width="32" height="31" viewBox="0 0 32 31" fill="none" xmlns="http://www.w3.org/2000/svg">
<g id="power-button" clipPath="url(#clip0_233_57412)">
<g id="Group">
<g id="Group_2">
<path id="Vector" d="M25.8493 20.75H24.6987V19.75H25.8493C28.3642 19.75 30.4109 17.7315 30.4109 15.2499C30.4109 12.9264 28.6454 11.0014 26.3049 10.7724L25.8483 10.7279L25.8503 10.2249C25.8494 6.66584 22.8934 3.74989 19.2603 3.74989C16.7311 3.74989 14.3951 5.2124 13.3088 7.47587L13.0559 8.00237L12.5668 7.6764C12.1482 7.39736 11.6586 7.24995 11.1507 7.24995C10.1588 7.24995 9.25304 7.82744 8.84302 8.72141L8.65899 9.12291L8.23221 8.99341C7.7 8.83192 7.14758 8.74989 6.58899 8.74989C3.51491 8.74989 1.0137 11.2174 1.0137 14.2499C1.0137 17.2825 3.51502 19.75 6.58899 19.75H6.72588V20.75H6.58899C2.95589 20.75 0 17.8341 0 14.2501C0 10.6661 2.95589 7.75 6.58899 7.75C7.10746 7.75 7.62193 7.81005 8.12375 7.92803C8.7629 6.89656 9.9084 6.25005 11.1507 6.25005C11.6707 6.25005 12.1776 6.36056 12.6419 6.57304C13.9809 4.23459 16.5228 2.75 19.2603 2.75C23.313 2.75 26.6349 5.89347 26.8518 9.83896C29.4884 10.3065 31.4247 12.5595 31.4247 15.2499C31.4247 18.2825 28.9233 20.75 25.8493 20.75Z" fill="#333333"/>
<path id="Vector_2" d="M15.7161 28.2501C21.0347 28.2501 25.3463 23.9968 25.3463 18.7501C25.3463 13.5033 21.0347 9.25 15.7161 9.25C10.3975 9.25 6.08594 13.5033 6.08594 18.7501C6.08594 23.9968 10.3975 28.2501 15.7161 28.2501Z" fill="#FFC700"/>
<path id="Vector_3" d="M16.2168 12.25H15.2031V21.7501H16.2168V12.25Z" fill="#333333"/>
<path id="Vector_4" d="M15.7159 24.2514C12.6418 24.2514 10.1406 21.7839 10.1406 18.7514C10.1406 16.3363 11.7093 14.2273 14.0434 13.5039L14.3476 14.4579C12.4378 15.0499 11.1544 16.7755 11.1544 18.7515C11.1544 21.233 13.2011 23.2515 15.716 23.2515C18.231 23.2515 20.2776 21.2331 20.2776 18.7515C20.2776 16.7755 18.9942 15.0499 17.0845 14.4585L17.3885 13.5044C19.7226 14.2274 21.2913 16.3364 21.2913 18.7515C21.2913 21.7839 18.79 24.2514 15.7159 24.2514Z" fill="#333333"/>
</g>
</g>
</g>
<defs>
<clipPath id="clip0_233_57412">
<rect width="31.4247" height="31" fill="white"/>
</clipPath>
</defs>
</svg>
