<svg width="31" height="31" viewBox="0 0 31 31" fill="none" xmlns="http://www.w3.org/2000/svg">
<g id="product 1" clip-path="url(#clip0_233_57306)">
<path id="Vector" d="M2.85684 30.5152C1.54855 30.5152 0.484375 29.451 0.484375 28.1427C0.484375 27.4486 0.786625 26.7923 1.31314 26.3408L6.1133 22.2266L6.74347 22.9618L1.94331 27.0761C1.63186 27.3435 1.45312 27.732 1.45312 28.1427C1.45312 28.9168 2.08281 29.5464 2.85684 29.5464C3.26759 29.5464 3.65558 29.3677 3.92247 29.0562L8.03772 24.2561L8.773 24.8863L4.65823 29.6864C4.20777 30.2129 3.55095 30.5152 2.85684 30.5152Z" fill="black"/>
<path id="Vector_2" d="M3.24741 28.4349L2.5625 27.75L3.21302 27.0995L3.89792 27.7844L3.24741 28.4349ZM4.58331 27.099L3.89841 26.4141L4.58331 25.7292L5.26822 26.4141L4.58331 27.099ZM5.95312 25.7292L5.26822 25.0443L5.95312 24.3594L6.63803 25.0443L5.95312 25.7292Z" fill="black"/>
<path id="Vector_3" d="M6.78125 2.42188H7.75V3.39062H6.78125V2.42188Z" fill="black"/>
<path id="Vector_4" d="M8.71875 2.42188H9.6875V3.39062H8.71875V2.42188Z" fill="black"/>
<path id="Vector_5" d="M10.6562 2.42188H11.625V3.39062H10.6562V2.42188Z" fill="black"/>
<path id="Vector_6" d="M4.84375 0.484375V18.8906H5.8125V5.32812H29.5469V21.7969H17.9219V22.7656H30.5156V0.484375H4.84375ZM5.8125 4.35938V1.45312H29.5469V4.35938H5.8125Z" fill="black"/>
<path id="Vector_7" d="M22.7656 15.5H26.6406V17.4375H22.7656V15.5Z" fill="#FFC700"/>
<path id="Vector_8" d="M22.7656 8.71875H26.6406V10.6562H22.7656V8.71875Z" fill="#FFC700"/>
<path id="Vector_9" d="M28.5781 20.8281H20.8281V15.0156H28.5781V20.8281ZM21.7969 19.8594H27.6094V15.9844H21.7969V19.8594Z" fill="black"/>
<path id="Vector_10" d="M28.5781 14.0469H20.8281V8.23438H28.5781V14.0469ZM21.7969 13.0781H27.6094V9.20312H21.7969V13.0781Z" fill="black"/>
<path id="Vector_11" d="M12.1094 22.2812C10.2402 22.2812 8.71875 20.7598 8.71875 18.8906H9.6875C9.6875 20.226 10.774 21.3125 12.1094 21.3125V22.2812Z" fill="black"/>
<path id="Vector_12" d="M28.5781 7.26562H27.6094V6.29688H28.5781V7.26562ZM26.6406 7.26562H25.6719V6.29688H26.6406V7.26562ZM24.7031 7.26562H23.7344V6.29688H24.7031V7.26562Z" fill="black"/>
<path id="Vector_13" d="M12.1094 26.1562C8.10311 26.1562 4.84375 22.8969 4.84375 18.8906C4.84375 14.8844 8.10311 11.625 12.1094 11.625C16.1156 11.625 19.375 14.8844 19.375 18.8906C19.375 22.8969 16.1156 26.1562 12.1094 26.1562ZM12.1094 14.0469C9.43853 14.0469 7.26562 16.2198 7.26562 18.8906C7.26562 21.5615 9.43853 23.7344 12.1094 23.7344C14.7802 23.7344 16.9531 21.5615 16.9531 18.8906C16.9531 16.2198 14.7802 14.0469 12.1094 14.0469Z" fill="#FFC700"/>
<path id="Vector_14" d="M12.1094 24.2188C9.17164 24.2188 6.78125 21.8284 6.78125 18.8906C6.78125 15.9529 9.17164 13.5625 12.1094 13.5625C15.0471 13.5625 17.4375 15.9529 17.4375 18.8906C17.4375 21.8284 15.0471 24.2188 12.1094 24.2188ZM12.1094 14.5312C9.70542 14.5312 7.75 16.4867 7.75 18.8906C7.75 21.2946 9.70542 23.25 12.1094 23.25C14.5133 23.25 16.4688 21.2946 16.4688 18.8906C16.4688 16.4867 14.5133 14.5312 12.1094 14.5312Z" fill="black"/>
<path id="Vector_15" d="M12.5938 6.78125H17.4375V8.71875H12.5938V6.78125Z" fill="#FFC700"/>
<path id="Vector_16" d="M6.78125 6.78125H11.625V8.71875H6.78125V6.78125Z" fill="#FFC700"/>
<path id="Vector_17" d="M6.78125 6.29688H11.625V7.26562H6.78125V6.29688Z" fill="black"/>
<path id="Vector_18" d="M6.78125 8.23438H11.625V9.20312H6.78125V8.23438Z" fill="black"/>
<path id="Vector_19" d="M12.5938 6.29688H17.4375V7.26562H12.5938V6.29688Z" fill="black"/>
<path id="Vector_20" d="M12.5938 8.23438H17.4375V9.20312H12.5938V8.23438Z" fill="black"/>
</g>
<defs>
<clipPath id="clip0_233_57306">
<rect width="31" height="31" fill="white"/>
</clipPath>
</defs>
</svg>
