<svg xmlns="http://www.w3.org/2000/svg" width="384" height="42" viewBox="0 0 384 42" fill="none">
<path d="M0 0H17.7943C27.6165 0 35.5885 8.15353 35.5885 18.1995H0V0Z" fill="#4CAF50"/>
<path d="M57.8971 41.0198H40.1029C30.2805 41.0198 22.3086 32.8663 22.3086 22.8203H57.8971V41.0198Z" fill="white"/>
<path d="M80.2084 0H40.1025V18.1995H80.2084V0Z" fill="white"/>
<path d="M62.4141 22.8203H80.2082V41.0198C70.3861 41.0198 62.4141 32.8663 62.4141 22.8203Z" fill="#008EB0"/>
<path d="M84.7227 22.8203H120.311C120.311 32.8663 112.339 41.0198 102.517 41.0198H84.7227V22.8203Z" fill="white"/>
<path d="M142.623 18.1995H107.034C107.034 8.15353 115.006 0 124.828 0H142.623V18.1995Z" fill="#FFC700"/>
<path d="M164.932 22.8203H124.826V41.0198H164.932V22.8203Z" fill="white"/>
<path d="M169.448 0V41.019H187.242V0H169.448Z" fill="white"/>
<path d="M102.517 0H84.7227V18.1995H102.517V0Z" fill="white"/>
<path d="M164.931 0V18.1995H147.137C147.137 8.15353 155.109 0 164.931 0Z" fill="white"/>
<path d="M191.757 0H209.551C219.373 0 227.345 8.15353 227.345 18.1995H191.757V0Z" fill="white"/>
<path d="M249.656 41.0198H231.862C222.04 41.0198 214.068 32.8663 214.068 22.8203H249.656V41.0198Z" fill="white"/>
<path d="M271.969 0H231.861V18.1995H271.969V0Z" fill="#69C469"/>
<path d="M209.551 22.8203H191.757V41.0198H209.551V22.8203Z" fill="#1D2A4A"/>
<path d="M254.172 22.8203H271.966V41.0198C262.142 41.0198 254.172 32.8663 254.172 22.8203Z" fill="white"/>
<path d="M276.482 22.8203H312.072C312.072 32.8663 304.099 41.0198 294.277 41.0198H276.482V22.8203Z" fill="white"/>
<path d="M334.382 18.1995H298.795C298.795 8.15353 306.766 0 316.587 0H334.382V18.1995Z" fill="white"/>
<path d="M356.691 22.8203H316.584V41.0198H356.691V22.8203Z" fill="#FFC700"/>
<path d="M361.205 0V41.019H379V0H361.205Z" fill="white"/>
<path d="M294.276 0H276.481V18.1995H294.276V0Z" fill="white"/>
<path d="M356.691 0V18.1995H338.896C338.896 8.15353 346.867 0 356.691 0Z" fill="white"/>
</svg>