<svg width="79" height="48" viewBox="0 0 79 48" fill="none" xmlns="http://www.w3.org/2000/svg">
<path d="M22.5419 39.2909H14.3368C13.9828 39.2909 13.6433 39.1502 13.3929 38.8999C13.1426 38.6495 13.002 38.31 13.002 37.956C13.002 37.6019 13.1426 37.2624 13.3929 37.0121C13.6433 36.7617 13.9828 36.6211 14.3368 36.6211H22.5419C22.8959 36.6211 23.2355 36.7617 23.4858 37.0121C23.7362 37.2624 23.8768 37.6019 23.8768 37.956C23.8768 38.31 23.7362 38.6495 23.4858 38.8999C23.2355 39.1502 22.8959 39.2909 22.5419 39.2909Z" fill="#9A9EA7"/>
<path d="M55.8341 39.2909H37.9111C37.557 39.2909 37.2175 39.1502 36.9671 38.8999C36.7168 38.6495 36.5762 38.31 36.5762 37.956C36.5762 37.6019 36.7168 37.2624 36.9671 37.0121C37.2175 36.7617 37.557 36.6211 37.9111 36.6211H55.8341C56.1881 36.6211 56.5276 36.7617 56.778 37.0121C57.0283 37.2624 57.1689 37.6019 57.1689 37.956C57.1689 38.31 57.0283 38.6495 56.778 38.8999C56.5276 39.1502 56.1881 39.2909 55.8341 39.2909Z" fill="#9A9EA7"/>
<path d="M77.6097 39.2901H71.1845C70.8305 39.2901 70.4909 39.1494 70.2406 38.8991C69.9903 38.6487 69.8496 38.3092 69.8496 37.9552C69.8496 37.6011 69.9903 37.2616 70.2406 37.0113C70.4909 36.7609 70.8305 36.6203 71.1845 36.6203H76.3016V26.2794C76.3029 25.6109 76.1416 24.9521 75.8315 24.3598C75.5215 23.7676 75.0719 23.2597 74.5217 22.8799L70.4281 20.1123C70.285 20.0106 70.1614 19.884 70.0632 19.7385L60.3453 4.72552C59.941 4.09216 59.383 3.57147 58.7232 3.21201C58.0634 2.85254 57.3234 2.66601 56.572 2.6698H19.3466C18.9926 2.6698 18.653 2.52916 18.4027 2.27882C18.1524 2.02849 18.0117 1.68895 18.0117 1.33492C18.0117 0.980889 18.1524 0.641355 18.4027 0.391016C18.653 0.140677 18.9926 3.95162e-05 19.3466 3.95162e-05H56.572C57.7692 -0.00394899 58.9481 0.294053 59.9997 0.866481C61.0512 1.43891 61.9414 2.26727 62.5879 3.27495L72.1545 18.0565L75.9812 20.6729C76.899 21.2927 77.6513 22.1276 78.1725 23.1048C78.6937 24.082 78.9679 25.1719 78.9713 26.2794V37.9552C78.9714 38.1327 78.936 38.3085 78.8672 38.4723C78.7985 38.636 78.6978 38.7843 78.571 38.9086C78.4442 39.033 78.2938 39.1307 78.1288 39.1962C77.9637 39.2617 77.7873 39.2936 77.6097 39.2901Z" fill="#9A9EA7"/>
<path d="M30.222 47.2742C28.4373 47.2742 26.6926 46.7449 25.2087 45.7534C23.7247 44.7618 22.5681 43.3525 21.8851 41.7036C21.2022 40.0547 21.0235 38.2404 21.3716 36.4899C21.7198 34.7395 22.5793 33.1316 23.8413 31.8696C25.1033 30.6076 26.7111 29.7481 28.4616 29.4C30.212 29.0518 32.0264 29.2305 33.6753 29.9135C35.3242 30.5965 36.7335 31.7531 37.7251 33.237C38.7166 34.721 39.2458 36.4656 39.2458 38.2504C39.2458 40.6436 38.2951 42.9389 36.6028 44.6312C34.9105 46.3235 32.6153 47.2742 30.222 47.2742ZM30.222 31.8963C28.9653 31.8963 27.7368 32.269 26.6919 32.9672C25.647 33.6654 24.8326 34.6577 24.3517 35.8188C23.8708 36.9798 23.7449 38.2574 23.9901 39.49C24.2353 40.7225 24.8404 41.8547 25.7291 42.7434C26.6177 43.632 27.7499 44.2371 28.9824 44.4823C30.215 44.7275 31.4926 44.6017 32.6536 44.1207C33.8147 43.6398 34.807 42.8254 35.5052 41.7805C36.2034 40.7356 36.5761 39.5071 36.5761 38.2504C36.5737 36.5659 35.9035 34.9511 34.7124 33.76C33.5213 32.5689 31.9065 31.8987 30.222 31.8963Z" fill="#9A9EA7"/>
<path d="M63.496 47.2742C61.7112 47.2742 59.9666 46.7449 58.4826 45.7534C56.9987 44.7618 55.8421 43.3525 55.1591 41.7036C54.4761 40.0547 54.2974 38.2404 54.6456 36.4899C54.9937 34.7395 55.8532 33.1316 57.1152 31.8696C58.3772 30.6076 59.9851 29.7481 61.7355 29.4C63.486 29.0518 65.3003 29.2305 66.9492 29.9135C68.5981 30.5965 70.0074 31.7531 70.999 33.237C71.9905 34.721 72.5198 36.4656 72.5198 38.2504C72.5174 40.6429 71.5659 42.9368 69.8742 44.6286C68.1824 46.3203 65.8885 47.2718 63.496 47.2742ZM63.496 31.8963C62.2393 31.8963 61.0108 32.269 59.9659 32.9672C58.9209 33.6654 58.1065 34.6577 57.6256 35.8188C57.1447 36.9798 57.0189 38.2574 57.264 39.49C57.5092 40.7225 58.1144 41.8547 59.003 42.7434C59.8916 43.632 61.0238 44.2371 62.2564 44.4823C63.4889 44.7275 64.7665 44.6017 65.9276 44.1207C67.0886 43.6398 68.081 42.8254 68.7792 41.7805C69.4774 40.7356 69.85 39.5071 69.85 38.2504C69.8453 36.5666 69.1744 34.9532 67.9838 33.7626C66.7932 32.572 65.1797 31.901 63.496 31.8963Z" fill="#9A9EA7"/>
<path d="M71.1854 20.3436H49.5336C49.1796 20.3436 48.84 20.203 48.5897 19.9526C48.3394 19.7023 48.1987 19.3628 48.1987 19.0087V1.3349C48.1987 0.980869 48.3394 0.641336 48.5897 0.390997C48.84 0.140658 49.1796 2.01762e-05 49.5336 2.01762e-05H56.3504C57.6162 -0.00290657 58.8625 0.312625 59.9744 0.917572C61.0863 1.52252 62.0282 2.39744 62.7133 3.46181L72.3067 18.2879C72.4391 18.4888 72.5144 18.722 72.5245 18.9624C72.5345 19.2028 72.4789 19.4414 72.3637 19.6527C72.2485 19.8639 72.0779 20.0398 71.8704 20.1615C71.6628 20.2833 71.426 20.3462 71.1854 20.3436ZM50.8685 17.6739H68.7292L60.4707 4.91238C60.0273 4.22291 59.4174 3.65611 58.6973 3.26421C57.9773 2.8723 57.1702 2.66788 56.3504 2.66978H50.8685V17.6739Z" fill="#9A9EA7"/>
<path d="M24.197 12.4159H10.2431C9.88905 12.4159 9.54952 12.2752 9.29918 12.0249C9.04884 11.7745 8.9082 11.435 8.9082 11.081C8.9082 10.7269 9.04884 10.3874 9.29918 10.1371C9.54952 9.88673 9.88905 9.74609 10.2431 9.74609H24.197C24.5511 9.74609 24.8906 9.88673 25.141 10.1371C25.3913 10.3874 25.5319 10.7269 25.5319 11.081C25.5319 11.435 25.3913 11.7745 25.141 12.0249C24.8906 12.2752 24.5511 12.4159 24.197 12.4159Z" fill="#9A9EA7"/>
<path d="M17.9141 22.0955H1.33488C0.980849 22.0955 0.641317 21.9549 0.390978 21.7046C0.140639 21.4542 0 21.1147 0 20.7607C0 20.4066 0.140639 20.0671 0.390978 19.8168C0.641317 19.5664 0.980849 19.4258 1.33488 19.4258H17.9141C18.2681 19.4258 18.6077 19.5664 18.858 19.8168C19.1084 20.0671 19.249 20.4066 19.249 20.7607C19.249 21.1147 19.1084 21.4542 18.858 21.7046C18.6077 21.9549 18.2681 22.0955 17.9141 22.0955Z" fill="#9A9EA7"/>
<path d="M16.3834 30.1971H6.42521C6.07118 30.1971 5.73165 30.0565 5.48131 29.8061C5.23097 29.5558 5.09033 29.2163 5.09033 28.8622C5.09033 28.5082 5.23097 28.1687 5.48131 27.9183C5.73165 27.668 6.07118 27.5273 6.42521 27.5273H16.3834C16.7375 27.5273 17.077 27.668 17.3273 27.9183C17.5777 28.1687 17.7183 28.5082 17.7183 28.8622C17.7183 29.2163 17.5777 29.5558 17.3273 29.8061C17.077 30.0565 16.7375 30.1971 16.3834 30.1971Z" fill="#9A9EA7"/>
</svg>
