<svg width="40" height="40" viewBox="0 0 40 40" fill="none" xmlns="http://www.w3.org/2000/svg">
<rect width="40" height="40" fill="white"/>
<path d="M15.355 13.2873V7.09375H36.0001V22.5776H15.355V13.2873Z" fill="#FFC700"/>
<path d="M8.64504 29.8057C8.93009 29.8057 9.16116 29.5746 9.16116 29.2896C9.16116 29.0045 8.93009 28.7734 8.64504 28.7734C8.35999 28.7734 8.12891 29.0045 8.12891 29.2896C8.12891 29.5746 8.35999 29.8057 8.64504 29.8057Z" fill="#333333"/>
<path d="M14.8385 14.8438H10.1934V20.005H14.8385V14.8438ZM13.8063 18.9728H11.2256V15.876H13.8063V18.9728Z" fill="#333333"/>
<path d="M28.7744 29.8057C29.0595 29.8057 29.2906 29.5746 29.2906 29.2896C29.2906 29.0045 29.0595 28.7734 28.7744 28.7734C28.4894 28.7734 28.2583 29.0045 28.2583 29.2896C28.2583 29.5746 28.4894 29.8057 28.7744 29.8057Z" fill="#333333"/>
<path d="M36 22.5872H33.4194V23.6195H34.9677V27.7485H32.0335C31.4524 26.5299 30.2116 25.684 28.7742 25.684C27.3368 25.684 26.0965 26.5299 25.5148 27.7485H22.5806V26.7162H16.9032V27.7485H16.3871V23.6195H32.3871V22.5872H16.3871V14.3291C16.3871 13.7598 15.9241 13.2969 15.3548 13.2969H9.67742C9.10813 13.2969 8.64516 13.7598 8.64516 14.3291V19.028L4 19.5441V28.7807H5.07355C5.04929 28.95 5.03226 29.1214 5.03226 29.2969C5.03226 31.2886 6.65342 32.9098 8.64516 32.9098C10.6369 32.9098 12.2581 31.2886 12.2581 29.2969C12.2581 29.1214 12.241 28.95 12.2168 28.7807H15.871H16.3871H16.9032V29.813H22.5806V28.7807H25.2026C25.1783 28.95 25.1613 29.1214 25.1613 29.2969C25.1613 31.2886 26.7825 32.9098 28.7742 32.9098C30.7659 32.9098 32.3871 31.2886 32.3871 29.2969C32.3871 29.1214 32.3701 28.95 32.3458 28.7807H36V22.5872ZM5.03226 22.5872H6.58065C6.86555 22.5872 7.09677 22.8184 7.09677 23.1033C7.09677 23.3882 6.86555 23.6195 6.58065 23.6195H5.03226V22.5872ZM8.64516 31.8775C7.22219 31.8775 6.06452 30.7198 6.06452 29.2969C6.06452 27.8739 7.22219 26.7162 8.64516 26.7162C10.0681 26.7162 11.2258 27.8739 11.2258 29.2969C11.2258 30.7198 10.0681 31.8775 8.64516 31.8775ZM15.3548 27.7485H11.9045C11.3234 26.5299 10.0826 25.684 8.64516 25.684C7.20774 25.684 5.96748 26.5299 5.38581 27.7485H5.03226V24.6517H6.58065C7.43432 24.6517 8.12903 23.957 8.12903 23.1033C8.12903 22.2496 7.43432 21.5549 6.58065 21.5549H5.03226V20.469L9.67742 19.9529V14.3291H15.3548V27.7485ZM21.5484 28.7807H17.9355V27.7485H21.5484V28.7807ZM28.7742 31.8775C27.3512 31.8775 26.1935 30.7198 26.1935 29.2969C26.1935 27.8739 27.3512 26.7162 28.7742 26.7162C30.1972 26.7162 31.3548 27.8739 31.3548 29.2969C31.3548 30.7198 30.1972 31.8775 28.7742 31.8775Z" fill="#333333"/>
<path d="M17.4194 10.1963C17.7045 10.1963 17.9356 9.96524 17.9356 9.68019C17.9356 9.39514 17.7045 9.16406 17.4194 9.16406C17.1344 9.16406 16.9033 9.39514 16.9033 9.68019C16.9033 9.96524 17.1344 10.1963 17.4194 10.1963Z" fill="#333333"/>
<path d="M19.4839 10.1963C19.769 10.1963 20 9.96524 20 9.68019C20 9.39514 19.769 9.16406 19.4839 9.16406C19.1989 9.16406 18.9678 9.39514 18.9678 9.68019C18.9678 9.96524 19.1989 10.1963 19.4839 10.1963Z" fill="#333333"/>
<path d="M21.5484 10.1963C21.8334 10.1963 22.0645 9.96524 22.0645 9.68019C22.0645 9.39514 21.8334 9.16406 21.5484 9.16406C21.2633 9.16406 21.0322 9.39514 21.0322 9.68019C21.0322 9.96524 21.2633 10.1963 21.5484 10.1963Z" fill="#333333"/>
<path d="M23.6128 10.1963C23.8979 10.1963 24.1289 9.96524 24.1289 9.68019C24.1289 9.39514 23.8979 9.16406 23.6128 9.16406C23.3278 9.16406 23.0967 9.39514 23.0967 9.68019C23.0967 9.96524 23.3278 10.1963 23.6128 10.1963Z" fill="#333333"/>
<path d="M25.6773 10.1963C25.9623 10.1963 26.1934 9.96524 26.1934 9.68019C26.1934 9.39514 25.9623 9.16406 25.6773 9.16406C25.3922 9.16406 25.1611 9.39514 25.1611 9.68019C25.1611 9.96524 25.3922 10.1963 25.6773 10.1963Z" fill="#333333"/>
<path d="M27.7417 10.1963C28.0268 10.1963 28.2578 9.96524 28.2578 9.68019C28.2578 9.39514 28.0268 9.16406 27.7417 9.16406C27.4567 9.16406 27.2256 9.39514 27.2256 9.68019C27.2256 9.96524 27.4567 10.1963 27.7417 10.1963Z" fill="#333333"/>
<path d="M29.8067 10.1963C30.0917 10.1963 30.3228 9.96524 30.3228 9.68019C30.3228 9.39514 30.0917 9.16406 29.8067 9.16406C29.5216 9.16406 29.2905 9.39514 29.2905 9.68019C29.2905 9.96524 29.5216 10.1963 29.8067 10.1963Z" fill="#333333"/>
<path d="M31.8711 10.1963C32.1562 10.1963 32.3872 9.96524 32.3872 9.68019C32.3872 9.39514 32.1562 9.16406 31.8711 9.16406C31.5861 9.16406 31.355 9.39514 31.355 9.68019C31.355 9.96524 31.5861 10.1963 31.8711 10.1963Z" fill="#333333"/>
<path d="M33.9356 10.1963C34.2206 10.1963 34.4517 9.96524 34.4517 9.68019C34.4517 9.39514 34.2206 9.16406 33.9356 9.16406C33.6505 9.16406 33.4194 9.39514 33.4194 9.68019C33.4194 9.96524 33.6505 10.1963 33.9356 10.1963Z" fill="#333333"/>
</svg>
