<svg width="108" height="107" viewBox="0 0 108 107" fill="none" xmlns="http://www.w3.org/2000/svg">
<path d="M72.3324 61.5155C71.8083 61.6462 71.4409 62.1172 71.4409 62.6577V66.4485C71.4409 67.0985 71.9685 67.6261 72.6185 67.6261H80.8618V59.3828L72.3324 61.5155Z" fill="#008EB0"/>
<path d="M35.2213 61.5155C35.7454 61.6462 36.1128 62.1172 36.1128 62.6577V66.4485C36.1128 67.0985 35.5852 67.6261 34.9352 67.6261H26.6919V59.3828L35.2213 61.5155Z" fill="#008EB0"/>
<path d="M70.8232 37.9176C70.6843 36.7282 69.6798 35.832 68.4833 35.832H39.0714C37.8726 35.832 36.8681 36.7294 36.7326 37.9176L34.9438 53.3607H72.6109L70.8232 37.9176Z" fill="#008EB0"/>
<path d="M62.0201 57.0312H45.5336C42.2869 57.0312 39.6455 59.6726 39.6455 62.9193V73.5178H67.9081V62.9193C67.9081 59.6726 65.2667 57.0312 62.0201 57.0312ZM59.6649 71.1626H57.3096V64.0969H59.6649V71.1626ZM54.9544 71.1626H52.5992V64.0969H54.9544V71.1626ZM50.244 71.1626H47.8888V64.0969H50.244V71.1626ZM65.5529 71.1626H62.0201V64.0969C62.0201 62.798 60.9638 61.7417 59.6649 61.7417H47.8888C46.5899 61.7417 45.5336 62.798 45.5336 64.0969V71.1626H42.0007V62.9193C42.0007 60.9715 43.5858 59.3865 45.5336 59.3865H62.0201C63.9678 59.3865 65.5529 60.9715 65.5529 62.9193V71.1626Z" fill="black"/>
<path d="M84.3944 24.0578H82.0391V22.8802C82.0391 19.6336 79.3978 16.9922 76.1511 16.9922H31.402C28.1553 16.9922 25.5139 19.6336 25.5139 22.8802V24.0578H23.1587V26.4131H25.5139V60.5637V69.9846C25.5139 71.9324 27.099 73.5174 29.0467 73.5174V86.4711C29.0467 88.4189 30.6318 90.004 32.5796 90.004H37.29C39.2378 90.004 40.8228 88.4189 40.8228 86.4711V80.5831H66.7302V86.4711C66.7302 88.4189 68.3153 90.004 70.2631 90.004H74.9735C76.9213 90.004 78.5063 88.4189 78.5063 86.4711V73.5174C80.4541 73.5174 82.0391 71.9324 82.0391 69.9846V60.5637V26.4131H84.3944V24.0578ZM38.4676 86.4711C38.4676 87.12 37.94 87.6487 37.29 87.6487H32.5796C31.9295 87.6487 31.402 87.12 31.402 86.4711V74.463L35.4824 80.5831H38.4676V86.4711ZM74.9735 87.6487H70.2631C69.613 87.6487 69.0854 87.12 69.0854 86.4711V80.5831H72.0707L76.1511 74.463V86.4711C76.1511 87.12 75.6235 87.6487 74.9735 87.6487ZM78.5063 71.1622H70.2631V73.5174H73.9513L70.8106 78.2279H36.7424L33.6017 73.5174H37.29V71.1622H29.0467C28.3967 71.1622 27.8691 70.6335 27.8691 69.9846V60.8946L34.9348 62.661V66.4518H30.2243V68.807H34.9348C36.2337 68.807 37.29 67.7507 37.29 66.4518V62.661C37.29 61.5788 36.5563 60.6391 35.5047 60.3765L28.2436 58.5606C29.0679 56.302 31.2171 54.6757 33.7572 54.6757H73.7959C76.336 54.6757 78.4851 56.302 79.3094 58.5606L72.0483 60.3765C70.9967 60.6379 70.2631 61.5776 70.2631 62.661V66.4518C70.2631 67.7507 71.3194 68.807 72.6183 68.807H77.3287V66.4518H72.6183V62.661L79.6839 60.8946V69.9846C79.6839 70.6335 79.1564 71.1622 78.5063 71.1622ZM69.58 33.4787C71.3818 33.4787 72.8915 34.8294 73.0905 36.6206L74.8428 52.3946C74.4989 52.3511 74.1515 52.3205 73.7959 52.3205H51.3024C50.7548 49.6367 48.3772 47.61 45.5333 47.61C42.6893 47.61 40.3117 49.6367 39.7642 52.3205H33.7572C33.4015 52.3205 33.0541 52.3511 32.7103 52.3946L34.4626 36.6218C34.6616 34.8294 36.1713 33.4787 37.973 33.4787H69.58ZM48.8494 52.3205H42.2183C42.7058 50.9533 44.0012 49.9652 45.5344 49.9652C47.0677 49.9652 48.3619 50.9533 48.8494 52.3205ZM79.6839 54.8064C78.9986 54.1057 78.1895 53.5334 77.2934 53.1106L75.4328 36.3615C75.0995 33.3751 72.5841 31.1235 69.58 31.1235H66.7302V27.5907H64.375V31.1235H43.178V27.5907H40.8228V31.1235H37.973C34.9689 31.1235 32.4524 33.3751 32.1203 36.3615L30.2597 53.1106C29.3635 53.5334 28.5533 54.1057 27.8691 54.8064V26.4131H33.7572V24.0578H27.8691V22.8802C27.8691 20.9325 29.4542 19.3474 31.402 19.3474H76.1511C78.0989 19.3474 79.6839 20.9325 79.6839 22.8802V24.0578H73.7959V26.4131H79.6839V54.8064Z" fill="black"/>
<path d="M63.1977 24.0586H44.356V26.4138H63.1977V24.0586Z" fill="black"/>
<path d="M39.6456 24.0586H36.1128V26.4138H39.6456V24.0586Z" fill="black"/>
<path d="M71.4405 24.0586H67.9077V26.4138H71.4405V24.0586Z" fill="black"/>
<path d="M42.0011 28.7688C40.0533 28.7688 38.4683 27.1837 38.4683 25.236C38.4683 23.2882 40.0533 21.7031 42.0011 21.7031C43.9489 21.7031 45.5339 23.2882 45.5339 25.236C45.5339 27.1837 43.9489 28.7688 42.0011 28.7688Z" fill="#008EB0"/>
<path d="M65.5528 28.7688C63.6051 28.7688 62.02 27.1837 62.02 25.236C62.02 23.2882 63.6051 21.7031 65.5528 21.7031C67.5006 21.7031 69.0857 23.2882 69.0857 25.236C69.0857 27.1837 67.5006 28.7688 65.5528 28.7688Z" fill="#008EB0"/>
</svg>
