<svg width="16" height="17" viewBox="0 0 16 17" fill="none" xmlns="http://www.w3.org/2000/svg">
<g clip-path="url(#clip0_95_30910)">
<path d="M16 8.0973L14.2255 6.06821L14.4727 3.38458L11.8473 2.78821L10.4727 0.460938L8 1.52276L5.52727 0.460938L4.15273 2.78094L1.52727 3.37003L1.77455 6.06094L0 8.0973L1.77455 10.1264L1.52727 12.8173L4.15273 13.4136L5.52727 15.7336L8 14.6645L10.4727 15.7264L11.8473 13.4064L14.4727 12.81L14.2255 10.1264L16 8.0973ZM6.61091 11.53L3.84727 8.75912L4.92364 7.68276L6.61091 9.3773L10.8655 5.10821L11.9418 6.18458L6.61091 11.53Z" fill="#4CAF50"/>
</g>
<defs>
<clipPath id="clip0_95_30910">
<rect width="16" height="16" fill="white" transform="translate(0 0.460938)"/>
</clipPath>
</defs>
</svg>
