<svg width="20" height="20" viewBox="0 0 20 20" fill="none" xmlns="http://www.w3.org/2000/svg">
<g id="Frame">
<g id="Group">
<path id="Vector" d="M6.87042 6.31887C6.87042 6.31887 7.10546 6.24255 7.57555 6.08993C8.04564 5.9373 8.73245 5.86099 9.63599 5.86099C10.5395 5.86099 11.4553 6.00751 12.3832 6.30055C13.3112 6.59359 14.1171 6.95379 14.8008 7.38114C15.4846 7.80849 16.0951 8.22973 16.6323 8.64487C17.1696 9.06001 17.5847 9.41411 17.8777 9.70715L18.2807 10.1833L18.647 10.5496L18.2807 10.9159C18.183 11.038 18.0487 11.1846 17.8777 11.3555C17.7068 11.5264 17.3405 11.8439 16.7788 12.3079C16.2172 12.7719 15.6433 13.187 15.0572 13.5533C14.4712 13.9196 13.7447 14.2676 12.8777 14.5973C12.0108 14.9269 11.15 15.1284 10.2953 15.2017C10.1 15.2261 9.88019 15.2383 9.63599 15.2383C9.39179 15.2383 9.17201 15.2261 8.97665 15.2017C8.12195 15.1284 7.26725 14.933 6.41255 14.6156C5.55785 14.2981 4.81914 13.9379 4.19643 13.535C3.57372 13.1321 3.01206 12.7352 2.51145 12.3445C2.01084 11.9538 1.62622 11.6241 1.3576 11.3555L0.9913 10.9159L0.625 10.5496L0.9913 10.1833C1.08898 10.0612 1.2355 9.90251 1.43086 9.70715C1.62622 9.51179 2.02305 9.1638 2.62134 8.66319C3.21963 8.16258 3.84234 7.72302 4.48947 7.34451C5.1366 6.966 5.93025 6.62412 6.87042 6.31887ZM9.63599 7.03315C8.48825 7.03315 7.30388 7.31398 6.08288 7.87564H6.11951C5.72879 8.51056 5.53343 9.20653 5.53343 9.96356C5.53343 11.0136 5.88141 11.9294 6.57738 12.7108C7.27335 13.4922 8.14637 13.944 9.19643 14.0661C9.39179 14.0661 9.53831 14.0661 9.63599 14.0661C9.70925 14.0661 9.85577 14.0661 10.0756 14.0661C11.1256 13.944 11.9986 13.4922 12.6946 12.7108C13.3906 11.9294 13.7386 11.0136 13.7386 9.96356C13.7386 9.20653 13.5432 8.49835 13.1525 7.83901C11.9559 7.30177 10.7837 7.03315 9.63599 7.03315ZM8.39057 8.71813C8.39057 8.71813 8.47604 8.63266 8.64698 8.46172C8.81792 8.29078 9.14759 8.20531 9.63599 8.20531C10.1244 8.20531 10.5395 8.37625 10.8814 8.71813C11.2233 9.06001 11.3942 9.47516 11.3942 9.96356C11.3942 10.452 11.2233 10.8671 10.8814 11.209C10.5395 11.5509 10.1244 11.7218 9.63599 11.7218C9.14759 11.7218 8.73245 11.5509 8.39057 11.209C8.04869 10.8671 7.87775 10.452 7.87775 9.96356C7.87775 9.47516 8.04869 9.06001 8.39057 8.71813ZM4.50778 8.75476C3.70192 9.29201 2.96932 9.8903 2.30998 10.5496C3.1891 11.4288 4.14148 12.1614 5.16712 12.7474C4.62988 11.9172 4.36126 10.9892 4.36126 9.96356C4.36126 9.57284 4.4101 9.1699 4.50778 8.75476ZM14.7642 8.75476C14.8619 9.1699 14.9107 9.57284 14.9107 9.96356C14.9107 10.9892 14.6421 11.9172 14.1049 12.7474C15.1305 12.1614 16.0829 11.4288 16.962 10.5496C16.3027 9.8903 15.5701 9.29201 14.7642 8.75476Z" fill="#008EB0"/>
</g>
</g>
</svg>
