<svg xmlns="http://www.w3.org/2000/svg" width="194" height="194" viewBox="0 0 194 194" fill="none">
<path d="M61.9121 13.9062H99.8056V94.3326L74.6647 119.5V37.6244H47.2627L61.9121 13.9062Z" fill="#FFC700"/>
<path style="mix-blend-mode:multiply" d="M193.541 1.17941C188.265 -4.08212 125.129 18.8837 71.9826 71.8811C18.8366 124.876 -5.60428 186.43 1.07947 193.094C30.5793 163.681 167.913 26.7371 193.541 1.17941Z" fill="url(#paint0_radial_262_26601)"/>
<path d="M152.375 117.133C140.588 117.133 131 126.721 131 138.508C131 150.294 140.588 159.883 152.384 159.883H152.447C152.404 159.582 152.375 159.279 152.375 158.972C152.375 157.61 153.477 156.508 154.839 156.508C155.427 156.508 155.995 156.718 156.442 157.101L158.593 158.945C167.55 156.224 173.75 147.938 173.75 138.508C173.75 126.721 164.162 117.133 152.375 117.133ZM156.486 153.716L152.323 154.258C143.663 154.23 136.625 147.175 136.625 138.508C136.625 129.823 143.69 122.758 152.375 122.758C161.06 122.758 168.125 129.823 168.125 138.508C168.125 145.622 163.341 151.867 156.486 153.716Z" fill="#FFC700"/>
<path d="M152.375 117.133C140.588 117.133 131 126.721 131 138.508C131 150.294 140.588 159.883 152.384 159.883H152.447C152.404 159.582 152.375 159.279 152.375 158.972C152.375 157.61 153.477 156.508 154.839 156.508C155.427 156.508 155.995 156.718 156.442 157.101L158.593 158.945C167.55 156.224 173.75 147.938 173.75 138.508C173.75 126.721 164.162 117.133 152.375 117.133ZM156.486 153.716L152.323 154.258C143.663 154.23 136.625 147.175 136.625 138.508C136.625 129.823 143.69 122.758 152.375 122.758C161.06 122.758 168.125 129.823 168.125 138.508C168.125 145.622 163.341 151.867 156.486 153.716Z" fill="#FFC700"/>
<path d="M108.5 158.758H126.5V172.258H108.5V158.758Z" fill="#FFC700"/>
<path d="M136.83 153.133H110.75V141.883H131.294C131.176 141.145 131.098 140.394 131.057 139.633H108.5V155.383H139.306C138.422 154.698 137.596 153.946 136.83 153.133Z" fill="black"/>
<path d="M164.486 168.954C164.661 168.252 164.75 167.531 164.75 166.807C164.75 164.222 163.625 161.775 161.662 160.093L157.175 156.247C156.525 155.69 155.696 155.383 154.839 155.383C152.86 155.383 151.25 156.993 151.25 158.97C151.25 161.296 152.348 163.535 154.185 164.957L155.314 165.831C155.587 166.044 155.75 166.376 155.75 166.722V176.758C155.75 177.379 155.245 177.883 154.625 177.883H150.125C149.809 177.883 149.525 177.75 149.321 177.54C150.458 176.999 151.25 175.849 151.25 174.508C151.25 173.64 150.911 172.856 150.373 172.258C150.913 171.659 151.25 170.875 151.25 170.008C151.25 169.14 150.911 168.356 150.373 167.758C150.913 167.159 151.25 166.375 151.25 165.508C151.25 164.043 150.306 162.806 149 162.34V159.588C146.838 159.243 144.786 158.577 142.89 157.632H131V182.382H144.5V177.675C144.853 177.802 145.229 177.883 145.625 177.883H146.434L144.746 184.633H107.375C106.755 184.633 106.25 184.129 106.25 183.508V137.383H131.057C131.098 136.621 131.176 135.871 131.294 135.133H106.25V125.008C106.25 124.387 106.755 123.883 107.375 123.883H136.83C137.595 123.069 138.421 122.318 139.305 121.633H107.375C105.514 121.633 104 123.147 104 125.008V183.508C104 185.369 105.514 186.883 107.375 186.883H165.066L162.535 176.758L164.486 168.954ZM155.563 163.179C154.272 162.179 153.5 160.606 153.5 158.97C153.5 158.232 154.101 157.633 154.839 157.633C155.158 157.633 155.468 157.748 155.71 157.955L160.197 161.801C161.661 163.055 162.5 164.88 162.5 166.807C162.5 167.346 162.434 167.884 162.303 168.407L160.496 175.633H158V166.722C158 165.686 157.511 164.688 156.692 164.054L155.563 163.179ZM149 165.508C149 166.129 148.495 166.633 147.875 166.633H145.625C145.005 166.633 144.5 166.129 144.5 165.508C144.5 164.887 145.005 164.383 145.625 164.383H147.875C148.495 164.383 149 164.887 149 165.508ZM149 170.008C149 170.629 148.495 171.133 147.875 171.133H145.625C145.005 171.133 144.5 170.629 144.5 170.008C144.5 169.387 145.005 168.883 145.625 168.883H147.875C148.495 168.883 149 169.387 149 170.008ZM143.128 172.258C142.588 172.856 142.25 173.64 142.25 174.508V180.133H133.25V159.883H135.707C135.581 160.236 135.5 160.612 135.5 161.008C135.5 162.869 137.014 164.383 138.875 164.383H142.457C142.331 164.736 142.25 165.112 142.25 165.508C142.25 166.375 142.589 167.159 143.128 167.758C142.588 168.356 142.25 169.14 142.25 170.008C142.25 170.875 142.589 171.659 143.128 172.258ZM138.875 162.133C138.255 162.133 137.75 161.629 137.75 161.008C137.75 160.387 138.255 159.883 138.875 159.883H146.75V162.133H138.875ZM145.625 175.633C145.005 175.633 144.5 175.129 144.5 174.508C144.5 173.887 145.005 173.383 145.625 173.383H147.875C148.495 173.383 149 173.887 149 174.508C149 175.129 148.495 175.633 147.875 175.633H145.625ZM147.066 184.633L148.324 179.602C148.846 179.934 149.461 180.133 150.125 180.133H154.625C156.092 180.133 157.343 179.192 157.808 177.883H160.498L162.185 184.633H147.066Z" fill="black"/>
<path d="M152.375 155.383C161.68 155.383 169.25 147.813 169.25 138.508C169.25 129.203 161.68 121.633 152.375 121.633C143.07 121.633 135.5 129.203 135.5 138.508C135.5 147.813 143.07 155.383 152.375 155.383ZM152.375 123.883C160.439 123.883 167 130.444 167 138.508C167 146.572 160.439 153.133 152.375 153.133C144.311 153.133 137.75 146.572 137.75 138.508C137.75 130.444 144.311 123.883 152.375 123.883Z" fill="black"/>
<path d="M151.25 137.383H153.5V139.633H151.25V137.383Z" fill="black"/>
<path d="M158 137.383H160.25V139.633H158V137.383Z" fill="black"/>
<path d="M144.5 137.383H146.75V139.633H144.5V137.383Z" fill="black"/>
<path d="M111.875 126.133C110.014 126.133 108.5 127.647 108.5 129.508C108.5 131.369 110.014 132.883 111.875 132.883H120.875C122.736 132.883 124.25 131.369 124.25 129.508C124.25 127.647 122.736 126.133 120.875 126.133H111.875ZM117.5 128.383V130.633H115.25V128.383H117.5ZM110.75 129.508C110.75 128.887 111.255 128.383 111.875 128.383H113V130.633H111.875C111.255 130.633 110.75 130.129 110.75 129.508ZM122 129.508C122 130.129 121.495 130.633 120.875 130.633H119.75V128.383H120.875C121.495 128.383 122 128.887 122 129.508Z" fill="black"/>
<path d="M108.5 157.633H126.5V159.883H108.5V157.633Z" fill="black"/>
<path d="M108.5 162.133H126.5V164.383H108.5V162.133Z" fill="black"/>
<path d="M108.5 166.633H126.5V168.883H108.5V166.633Z" fill="black"/>
<path d="M108.5 171.133H126.5V173.383H108.5V171.133Z" fill="black"/>
<path d="M108.5 182.383H115.25V175.633H108.5V182.383ZM110.75 177.883H113V180.133H110.75V177.883Z" fill="black"/>
<path d="M126.5 182.383V175.633H117.5V182.383H126.5ZM119.75 177.883H124.25V180.133H119.75V177.883Z" fill="black"/>
<defs>
<radialGradient id="paint0_radial_262_26601" cx="0" cy="0" r="1" gradientUnits="userSpaceOnUse" gradientTransform="translate(97.0968 99.8101) rotate(-44.9185) scale(137.354 36.3986)">
<stop stop-color="#060606"/>
<stop offset="0.05" stop-color="#343434"/>
<stop offset="0.09" stop-color="#606060"/>
<stop offset="0.15" stop-color="#868686"/>
<stop offset="0.2" stop-color="#A7A7A7"/>
<stop offset="0.26" stop-color="#C2C2C2"/>
<stop offset="0.33" stop-color="#D9D9D9"/>
<stop offset="0.41" stop-color="#EAEAEA"/>
<stop offset="0.51" stop-color="#F6F6F6"/>
<stop offset="0.64" stop-color="#FDFDFD"/>
<stop offset="1" stop-color="white"/>
</radialGradient>
</defs>
</svg>