<svg width="108" height="107" viewBox="0 0 108 107" fill="none" xmlns="http://www.w3.org/2000/svg">
<path d="M70.699 54.3957H36.8732C34.8751 54.3957 33.249 52.7696 33.249 50.7715V33.8586C33.249 31.8604 34.8751 30.2344 36.8732 30.2344H70.699C72.6972 30.2344 74.3232 31.8604 74.3232 33.8586V50.7715C74.3232 52.7696 72.6972 54.3957 70.699 54.3957Z" fill="#008EB0"/>
<path d="M77.9474 68.8906V71.3068C77.9474 75.9771 74.1613 79.7632 69.491 79.7632H64.6587V85.8035C64.6587 88.4685 66.826 90.6358 69.491 90.6358H74.3232C76.9882 90.6358 79.1555 88.4685 79.1555 85.8035V68.9861L77.9474 68.8906Z" fill="#008EB0"/>
<path d="M38.081 79.7632C33.4106 79.7632 29.6246 75.9771 29.6246 71.3068V68.8906L28.4165 68.9861V85.8035C28.4165 88.4685 30.5838 90.6358 33.2488 90.6358H38.081C40.746 90.6358 42.9133 88.4685 42.9133 85.8035V79.7632H38.081Z" fill="#008EB0"/>
<path d="M50.1626 30.2305H52.5787V54.3918H50.1626V30.2305Z" fill="black"/>
<path d="M54.9951 30.2305H57.4112V54.3918H54.9951V30.2305Z" fill="black"/>
<path d="M86.4046 30.2312V29.0231C86.4046 27.0249 84.7785 25.3989 82.7804 25.3989H79.1562C79.1562 20.0701 74.8204 15.7344 69.4916 15.7344H38.082C32.7532 15.7344 28.4174 20.0701 28.4174 25.3989H24.7933C22.7951 25.3989 21.1691 27.0249 21.1691 29.0231V30.2312C19.8366 30.2312 18.7529 31.3148 18.7529 32.6473V47.1441C18.7529 48.4766 19.8366 49.5602 21.1691 49.5602V50.7683C21.1691 52.7664 22.7951 54.3924 24.7933 54.3924H28.4174V71.3054C28.4174 76.6341 32.7532 80.9699 38.082 80.9699H69.4916C74.8204 80.9699 79.1562 76.6341 79.1562 71.3054V54.3924H82.7804C84.7785 54.3924 86.4046 52.7664 86.4046 50.7683V49.5602C87.7371 49.5602 88.8207 48.4766 88.8207 47.1441V32.6473C88.8207 31.3148 87.7371 30.2312 86.4046 30.2312ZM38.082 18.1505H69.4916C73.4891 18.1505 76.74 21.4014 76.74 25.3989H30.8336C30.8336 21.4014 34.0845 18.1505 38.082 18.1505ZM68.2836 70.0973C68.2836 69.4316 68.8248 68.8892 69.4916 68.8892C70.1585 68.8892 70.6997 69.4316 70.6997 70.0973C70.6997 70.7629 70.1585 71.3054 69.4916 71.3054C68.8248 71.3054 68.2836 70.7629 68.2836 70.0973ZM70.1162 66.5359C70.6743 66.0829 71.2832 65.7036 71.9174 65.3677C71.9742 67.3187 73.5689 68.8892 75.532 68.8892C75.9572 68.8892 76.3607 68.8022 76.74 68.6669V71.3054H72.8936C73.0289 70.926 73.1158 70.5225 73.1158 70.0973C73.1158 68.313 71.8172 66.8343 70.1162 66.5359ZM75.927 64.1403C76.4018 64.3082 76.74 64.7492 76.74 65.265C76.74 65.9307 76.1988 66.4731 75.532 66.4731C74.8651 66.4731 74.3239 65.9307 74.3239 65.265C74.3239 64.8966 74.5003 64.5571 74.783 64.33C75.1599 64.2503 75.5392 64.1826 75.927 64.1403ZM76.74 56.8086H30.8336V27.815H76.74V56.8086ZM36.8739 70.0973C36.8739 69.4316 37.4151 68.8892 38.082 68.8892C38.7488 68.8892 39.29 69.4316 39.29 70.0973C39.29 70.7629 38.7488 71.3054 38.082 71.3054C37.4151 71.3054 36.8739 70.7629 36.8739 70.0973ZM34.4578 70.0973C34.4578 70.5225 34.5448 70.926 34.6801 71.3054H30.8336V68.6669C31.2129 68.8022 31.6164 68.8892 32.0416 68.8892C34.0047 68.8892 35.5994 67.3187 35.655 65.3689C36.2892 65.7048 36.8981 66.0841 37.4562 66.5371C35.7564 66.8343 34.4578 68.313 34.4578 70.0973ZM32.7906 64.33C33.0733 64.5583 33.2497 64.8966 33.2497 65.265C33.2497 65.9307 32.7085 66.4731 32.0416 66.4731C31.3748 66.4731 30.8336 65.9307 30.8336 65.265C30.8336 64.7492 31.1718 64.3082 31.6466 64.1403C32.0344 64.1826 32.4137 64.2503 32.7906 64.33ZM21.1691 32.6473H23.5852V47.1441H21.1691V32.6473ZM24.7933 51.9763C24.1264 51.9763 23.5852 51.4339 23.5852 50.7683V49.5602C24.9177 49.5602 26.0013 48.4766 26.0013 47.1441V32.6473C26.0013 31.3148 24.9177 30.2312 23.5852 30.2312V29.0231C23.5852 28.3574 24.1264 27.815 24.7933 27.815H28.4174V51.9763H24.7933ZM69.4916 78.5537H38.082C34.9325 78.5537 32.2543 76.5326 31.2564 73.7215H39.7515C41.4947 73.7215 42.9142 72.3032 42.9142 70.5588C42.9142 70.0707 42.7983 69.5814 42.5808 69.1441C40.3266 64.6356 35.8495 61.8112 30.8336 61.6686V59.2247H76.74V61.6686C71.7254 61.8124 67.2471 64.6356 64.9928 69.1441C64.7754 69.5814 64.6594 70.0707 64.6594 70.5588C64.6594 72.3032 66.0789 73.7215 67.8221 73.7215H76.3172C75.3194 76.5326 72.6411 78.5537 69.4916 78.5537ZM83.9884 50.7683C83.9884 51.4339 83.4472 51.9763 82.7804 51.9763H79.1562V27.815H82.7804C83.4472 27.815 83.9884 28.3574 83.9884 29.0231V30.2312C82.6559 30.2312 81.5723 31.3148 81.5723 32.6473V47.1441C81.5723 48.4766 82.6559 49.5602 83.9884 49.5602V50.7683ZM83.9884 47.1441V32.6473H86.4046L86.4058 47.1441H83.9884Z" fill="black"/>
<path d="M61.2996 61.6406H46.2737C44.4217 61.6406 42.9141 63.1483 42.9141 65.0003C42.9141 65.2745 42.9467 65.5487 43.0143 65.8157L44.9593 73.5932C45.3338 75.0912 46.6736 76.1374 48.2175 76.1374H59.3546C60.8985 76.1374 62.2395 75.0912 62.6128 73.5932L64.559 65.8133C64.6266 65.5475 64.6592 65.2745 64.6592 65.0003C64.6592 63.1483 63.1516 61.6406 61.2996 61.6406ZM62.2165 65.2286L60.2715 73.0061C60.164 73.4277 59.7883 73.7213 59.3546 73.7213H48.2175C47.785 73.7213 47.4081 73.4277 47.3018 73.0073L45.358 65.231C45.3399 65.1561 45.3302 65.0776 45.3302 65.0003C45.3302 64.4796 45.7542 64.0568 46.2737 64.0568H61.2996C61.8191 64.0568 62.2431 64.4796 62.2431 65.0003C62.2431 65.0776 62.2334 65.1561 62.2165 65.2286Z" fill="black"/>
</svg>
