<svg width="40" height="40" viewBox="0 0 40 40" fill="none" xmlns="http://www.w3.org/2000/svg">
<rect width="40" height="40" fill="white"/>
<path d="M27.9442 23.0768C27.9548 23.0371 27.9909 23.0093 28.0318 23.0093H28.7351V18.8986H28.0318C27.9909 18.8986 27.9548 18.8709 27.9432 18.8275L27.9413 18.8203C27.9307 18.7806 27.948 18.7386 27.9833 18.7181L28.5925 18.3664L26.5371 14.8063L25.9259 15.1592C25.891 15.1793 25.8465 15.1737 25.8173 15.1453C25.8143 15.1424 25.8114 15.1394 25.8085 15.1365C25.7801 15.1073 25.7744 15.0629 25.7946 15.0278L26.1475 14.4167L22.5874 12.3613L22.2357 12.9704C22.2153 13.0058 22.1731 13.0232 22.1335 13.0124L22.1226 13.0095C22.0828 12.9989 22.0551 12.9628 22.0551 12.9219V12.2188H17.9444V12.9214C17.9444 12.9628 17.9165 12.999 17.8773 13.0095L17.867 13.0123C17.8267 13.023 17.784 13.0054 17.7631 12.9693L17.4122 12.3613L13.8521 14.4167L14.2049 15.0278C14.2252 15.0629 14.2195 15.1073 14.1911 15.1365C14.1881 15.1394 14.1852 15.1424 14.1823 15.1453C14.1531 15.1736 14.1085 15.1793 14.0735 15.1592L13.4625 14.8063L11.4072 18.3664L12.0164 18.7181C12.0518 18.7385 12.0691 18.7806 12.0584 18.8203L12.0555 18.8312C12.0449 18.8709 12.0088 18.8987 11.9679 18.8987H11.2646V23.0094H11.9679C12.0089 23.0094 12.0449 23.0371 12.0565 23.0805L12.0584 23.0877C12.0691 23.1274 12.0517 23.1694 12.0164 23.1899L11.4072 23.5416L13.4626 27.1017L14.0738 26.7488C14.1087 26.7287 14.1532 26.7343 14.1825 26.7627C14.1854 26.7657 14.1883 26.7686 14.1913 26.7715C14.2196 26.8007 14.2254 26.8451 14.2051 26.8802L13.8523 27.4913L17.4124 29.5467L17.764 28.9376C17.7844 28.9021 17.8265 28.8847 17.8662 28.8956L17.8771 28.8985C17.9169 28.9091 17.9447 28.9452 17.9447 28.9861V29.6892H22.0553V28.9859C22.0553 28.945 22.0831 28.9089 22.1264 28.8973L22.1337 28.8954C22.1735 28.8846 22.2155 28.9021 22.2359 28.9374L22.5875 29.5466L26.1477 27.4912L25.7948 26.88C25.7746 26.845 25.7803 26.8005 25.8087 26.7714C25.8116 26.7685 25.8145 26.7655 25.8175 26.7626C25.8467 26.7342 25.8911 26.7285 25.9262 26.7487L26.5373 27.1016L28.5927 23.5415L27.9835 23.1898C27.9481 23.1694 27.9309 23.1273 27.9415 23.0876L27.9442 23.0768ZM19.9999 26.6062C16.8782 26.6062 14.3477 24.0756 14.3477 20.954C14.3477 17.8323 16.8782 15.3018 19.9999 15.3018C23.1215 15.3018 25.6521 17.8323 25.6521 20.954C25.6521 24.0756 23.1215 26.6062 19.9999 26.6062Z" fill="#FFC700"/>
<path d="M17.431 24.0412H22.5694C23.136 24.0412 23.597 23.5802 23.597 23.0136V18.5853L21.2038 19.782L20.0002 17.9766L18.7966 19.7819L16.4033 18.5853V23.0136C16.4033 23.5802 16.8644 24.0412 17.431 24.0412ZM17.431 20.2481L19.1484 21.1068L20.0002 19.8292L20.8519 21.1069L22.5694 20.2481V23.0136H17.431V20.2481Z" fill="black"/>
<path d="M20.8312 7.08471L19.9998 5.42188L19.1684 7.08471H16.9844L18.4052 9.21598L17.6459 11.4941L19.9998 10.7094L22.3538 11.4941L21.5945 9.21598L23.0153 7.08471H20.8312ZM20.7289 9.86913L19.9998 9.62608L19.2708 9.86907L19.5391 9.06414L18.9046 8.11239H19.8035L19.9998 7.71988L20.1961 8.11239H21.0951L20.4605 9.06414L20.7289 9.86913Z" fill="black"/>
<path d="M27.5114 7.08471L26.68 5.42188L25.8486 7.08471H23.6646L25.0854 9.21598L24.3261 11.4941L26.68 10.7094L29.0339 11.4941L28.2746 9.21598L29.6954 7.08471H27.5114ZM27.4091 9.86913L26.68 9.62608L25.9509 9.86907L26.2193 9.06414L25.5848 8.11239H26.4837L26.68 7.71988L26.8763 8.11239H27.7752L27.1407 9.06414L27.4091 9.86913Z" fill="black"/>
<path d="M13.3201 10.7094L15.6741 11.4941L14.9148 9.21598L16.3356 7.08471H14.1515L13.3201 5.42188L12.4887 7.08471H10.3047L11.7255 9.21598L10.9662 11.4941L13.3201 10.7094ZM13.1239 8.11239L13.3201 7.71988L13.5164 8.11239H14.4154L13.7809 9.06414L14.0492 9.86907L13.3201 9.62608L12.5911 9.86907L12.8594 9.06414L12.2249 8.11239H13.1239Z" fill="black"/>
<path d="M31.8183 17.4115V8.62453C31.8183 6.07455 29.7437 4 27.1938 4H12.8063C10.2564 4 8.18181 6.07455 8.18181 8.62453V17.4115C7.01058 17.6502 6.12646 18.6882 6.12646 19.9289V25.0673C6.12646 26.4839 7.279 27.6365 8.69565 27.6365H14.0995L13.8524 27.4938L14.2053 26.8827C14.2256 26.8476 14.2198 26.8032 14.1914 26.774C14.1885 26.7711 14.1856 26.7682 14.1826 26.7652C14.1534 26.7369 14.1089 26.7312 14.074 26.7513L13.4628 27.1042L13.1768 26.6088H8.69565C7.8457 26.6088 7.15414 25.9172 7.15414 25.0673V19.9289C7.15414 19.079 7.8457 18.3874 8.69565 18.3874H11.4392L11.4074 18.3691L11.9901 17.3597H9.20948V8.62453C9.20948 6.64118 10.823 5.02767 12.8063 5.02767H27.1938C29.1771 5.02767 30.7906 6.64118 30.7906 8.62453V17.3597H28.01L28.5927 18.3691L28.5609 18.3874H31.3045C32.1544 18.3874 32.846 19.079 32.846 19.9289V25.0673C32.846 25.9172 32.1544 26.6088 31.3045 26.6088H26.8233L26.5373 27.1043L25.9262 26.7514C25.8911 26.7312 25.8467 26.7369 25.8174 26.7653C25.8145 26.7682 25.8116 26.7712 25.8086 26.7741C25.7803 26.8032 25.7745 26.8477 25.7948 26.8827L26.1477 27.4939L25.9006 27.6365H31.3045C32.7211 27.6365 33.8736 26.4839 33.8736 25.0673V19.9289C33.8736 18.6882 32.9895 17.6502 31.8183 17.4115Z" fill="black"/>
<path d="M24.3763 28.5167L25.8676 32.9902L23.4031 32.1688L22.1933 33.8274L20.6987 29.692H20.3628H19.606H19.272L17.8033 33.8225L16.5971 32.1688L14.1327 32.9902L15.6239 28.5167L14.7154 27.9922L12.5078 34.6151L16.2094 33.3812L18.1197 36.0001L19.9875 30.7474L21.8841 35.9953L23.7908 33.3812L27.4924 34.6151L25.2849 27.9922L24.3763 28.5167Z" fill="black"/>
<path d="M20 27.1211C23.4 27.1211 26.1661 24.3551 26.1661 20.9551C26.1661 17.5551 23.4 14.7891 20 14.7891C16.6 14.7891 13.834 17.5551 13.834 20.9551C13.834 24.3551 16.6 27.1211 20 27.1211ZM20 15.8167C22.8333 15.8167 25.1384 18.1218 25.1384 20.9551C25.1384 23.7884 22.8333 26.0935 20 26.0935C17.1667 26.0935 14.8617 23.7884 14.8617 20.9551C14.8617 18.1218 17.1667 15.8167 20 15.8167Z" fill="black"/>
</svg>
