<svg xmlns="http://www.w3.org/2000/svg" width="30" height="30" viewBox="0 0 30 30" fill="none">
<path d="M15.0645 2C10.6178 2 7 5.61781 7 10.0645V10.1169C7 12.271 7.83913 14.2964 9.36206 15.8197L9.98678 16.4439C11.6375 18.0952 12.796 20.1105 13.4044 22.3318C11.7275 22.6884 10.629 23.5614 10.629 24.5806C10.629 25.937 12.5774 27 15.0645 27C17.5516 27 19.5 25.937 19.5 24.5806C19.5 23.5618 18.402 22.6888 16.7251 22.3314C17.3334 20.1101 18.4919 18.0948 20.1428 16.4435L20.7674 15.8193C22.2899 14.2964 23.129 12.271 23.129 10.1169V10.0645C23.129 5.61781 19.5112 2 15.0645 2ZM18.6935 24.5806C18.6935 25.3436 17.2033 26.1935 15.0645 26.1935C12.9257 26.1935 11.4355 25.3436 11.4355 24.5806C11.4355 23.9797 12.3416 23.3806 13.5955 23.1162C13.6463 23.358 13.6991 23.5992 13.7371 23.8451C13.8383 24.5048 14.3969 24.9839 15.0645 24.9839C15.7322 24.9839 16.2907 24.5048 16.3919 23.8451C16.4299 23.5992 16.4827 23.3576 16.5335 23.1158C17.7875 23.3806 18.6935 23.9803 18.6935 24.5806ZM22.3226 10.1169C22.3226 12.0556 21.5673 13.8782 20.1968 15.2496L19.5723 15.8739C17.4307 18.0158 16.0553 20.7295 15.5951 23.7226C15.5544 23.9858 15.3315 24.1774 15.0645 24.1774C14.7975 24.1774 14.5747 23.9858 14.5339 23.7222C14.0734 20.7291 12.6983 18.0152 10.5568 15.8733L9.93225 15.2492C8.56171 13.8782 7.80645 12.0556 7.80645 10.1169V10.0645C7.80645 6.06258 11.0626 2.80645 15.0645 2.80645C19.0665 2.80645 22.3226 6.06258 22.3226 10.0645V10.1169Z" fill="#1D2A4A"/>
<path d="M15.0646 4.41797C11.9516 4.41797 9.41943 6.95014 9.41943 10.0631C9.41943 13.1761 11.9516 15.7083 15.0646 15.7083C18.1776 15.7083 20.7098 13.1761 20.7098 10.0631C20.7098 6.95014 18.1776 4.41797 15.0646 4.41797ZM15.0646 14.9018C12.3964 14.9018 10.2259 12.7314 10.2259 10.0631C10.2259 7.39491 12.3964 5.22442 15.0646 5.22442C17.7328 5.22442 19.9033 7.39491 19.9033 10.0631C19.9033 12.7314 17.7328 14.9018 15.0646 14.9018Z" fill="#1D2A4A"/>
<path d="M13.0483 16.5156H13.8548V17.3221H13.0483V16.5156Z" fill="#1D2A4A"/>
<path d="M14.6611 16.5156H15.4676V17.3221H14.6611V16.5156Z" fill="#FFC700"/>
<path d="M16.2739 16.5156H17.0804V17.3221H16.2739V16.5156Z" fill="#1D2A4A"/>
<circle cx="15" cy="10" r="5" fill="#FFC700"/>
</svg>