<svg xmlns="http://www.w3.org/2000/svg" width="229" height="15" viewBox="0 0 229 15" fill="none">
<path d="M215.66 14.6719L202.835 14.6719L190.009 14.6719L177.184 14.6719L190.009 -0.00217617L202.835 -0.00217617L215.66 -0.00217617L228.485 -0.00217617L215.66 14.6719Z" fill="#FFC700"/>
<path d="M177.658 14.6719L164.833 14.6719L152.007 14.6719L139.182 14.6719L152.007 -0.00217617L164.833 -0.00217617L177.658 -0.00217617L190.483 -0.00217617L177.658 14.6719Z" fill="#1D2A4A"/>
<path d="M139.656 14.6719L126.831 14.6719L114.005 14.6719L101.18 14.6719L114.005 -0.00217617L126.831 -0.00217617L139.656 -0.00217617L152.481 -0.00217617L139.656 14.6719Z" fill="#FFC700"/>
<path d="M101.655 14.6719L88.8298 14.6719L76.0044 14.6719L63.1791 14.6719L76.0044 -0.00217617L88.8298 -0.00217617L101.655 -0.00217617L114.48 -0.00217617L101.655 14.6719Z" fill="#1D2A4A"/>
<path d="M63.6532 14.6719L50.8278 14.6719L38.0025 14.6719L25.1771 14.6719L38.0025 -0.00217617L50.8278 -0.00217617L63.6532 -0.00217617L76.4785 -0.00217617L63.6532 14.6719Z" fill="#FFC700"/>
<path d="M25.6512 14.6719L12.8259 14.6719L0.000511169 14.6719V-0.00217628L12.8259 -0.00217628L25.6512 -0.00217628L38.4766 -0.00217628L25.6512 14.6719Z" fill="#1D2A4A"/>
<path d="M228.5 0V14.6972H215.175L228.5 0Z" fill="#1D2A4A"/>
</svg>