<svg xmlns="http://www.w3.org/2000/svg" width="23" height="22" viewBox="0 0 23 22" fill="none">
<path fill-rule="evenodd" clip-rule="evenodd" d="M12.579 11.0026C12.579 10.5353 12.1979 10.1543 11.7307 10.1543C11.2634 10.1543 10.8823 10.5354 10.8823 11.0026C10.8823 11.4699 11.2634 11.851 11.7307 11.851C12.1979 11.8509 12.579 11.4699 12.579 11.0026Z" fill="#8AC9FE"/>
<path fill-rule="evenodd" clip-rule="evenodd" d="M12.5792 11.0037C12.5792 10.5352 12.1993 10.1554 11.7308 10.1554C11.2623 10.1554 10.8825 10.5352 10.8825 11.0037C10.8825 11.4722 11.2623 11.852 11.7308 11.852C12.1993 11.852 12.5792 11.4722 12.5792 11.0037ZM11.7308 1.96094C16.7249 1.96094 20.7735 6.00961 20.7735 11.0037C20.7735 15.9978 16.7249 20.0465 11.7308 20.0465C6.7366 20.0465 2.68799 15.9978 2.68799 11.0037C2.68799 6.00961 6.73666 1.96094 11.7308 1.96094Z" fill="#F0F4FF"/>
<path fill-rule="evenodd" clip-rule="evenodd" d="M11.7305 0.347656C17.6158 0.347656 22.3867 5.11862 22.3867 11.0039C22.3867 16.8892 17.6158 21.6602 11.7305 21.6602C5.84512 21.6602 1.07422 16.8892 1.07422 11.0039C1.07422 5.11862 5.84524 0.347656 11.7305 0.347656ZM20.7732 11.0039C20.7732 6.0098 16.7246 1.96113 11.7305 1.96113C6.73637 1.96113 2.6877 6.00974 2.6877 11.0039C2.6877 15.9981 6.73637 20.0467 11.7305 20.0467C16.7246 20.0467 20.7732 15.998 20.7732 11.0039Z" fill="#1D2A4A"/>
<path fill-rule="evenodd" clip-rule="evenodd" d="M11.7303 20.3863C10.4632 20.3863 9.23397 20.1381 8.07656 19.6485C6.95877 19.1757 5.95498 18.499 5.09303 17.637C4.23109 16.7751 3.55433 15.7713 3.08156 14.6536C2.59201 13.4961 2.34375 12.2668 2.34375 10.9998C2.34375 9.73276 2.59201 8.5035 3.08156 7.34609C3.55433 6.2283 4.23109 5.22451 5.09303 4.36256C5.95498 3.50062 6.95877 2.82387 8.07656 2.35109C9.23397 1.86155 10.4633 1.61328 11.7303 1.61328C12.9973 1.61328 14.2266 1.86155 15.3841 2.35109C16.5018 2.82387 17.5056 3.50062 18.3675 4.36256C19.2295 5.22451 19.9062 6.2283 20.379 7.34609C20.8685 8.5035 21.1168 9.73282 21.1168 10.9998C21.1168 12.2668 20.8686 13.4961 20.379 14.6536C19.9062 15.7714 19.2295 16.7752 18.3675 17.637C17.5056 18.499 16.5018 19.1757 15.3841 19.6485C14.2266 20.1381 12.9973 20.3863 11.7303 20.3863ZM11.7303 2.30084C6.93365 2.30084 3.03131 6.20318 3.03131 10.9998C3.03131 15.7964 6.93365 19.6988 11.7303 19.6988C16.5269 19.6988 20.4292 15.7965 20.4292 10.9998C20.4292 6.20312 16.527 2.30084 11.7303 2.30084Z" fill="#333333"/>
<path fill-rule="evenodd" clip-rule="evenodd" d="M11.7305 22C10.2456 22 8.80501 21.7091 7.44869 21.1354C6.1388 20.5814 4.96247 19.7883 3.95235 18.7782C2.94223 17.7681 2.14915 16.5917 1.5951 15.2818C1.0214 13.9254 0.730469 12.4848 0.730469 11C0.730469 9.51513 1.02134 8.07454 1.59504 6.71822C2.14909 5.40833 2.94217 4.232 3.95229 3.22188C4.96241 2.21176 6.13874 1.41868 7.44863 0.864627C8.80501 0.290874 10.2457 0 11.7305 0C13.2153 0 14.6559 0.290875 16.0122 0.864567C17.3222 1.41863 18.4985 2.2117 19.5086 3.22182C20.5188 4.23194 21.3118 5.40827 21.8659 6.71822C22.4396 8.0746 22.7305 9.51519 22.7305 11.0001C22.7305 12.4849 22.4397 13.9255 21.866 15.2818C21.3119 16.5917 20.5188 17.7681 19.5087 18.7782C18.4986 19.7883 17.3223 20.5814 16.0123 21.1354C14.6559 21.7091 13.2153 22 11.7305 22ZM11.7305 0.6875C6.04415 0.6875 1.41797 5.31368 1.41797 11C1.41797 16.6863 6.04415 21.3125 11.7305 21.3125C17.4168 21.3125 22.043 16.6863 22.043 11C22.043 5.31368 17.4168 0.6875 11.7305 0.6875Z" fill="#AFB9D2"/>
<path fill-rule="evenodd" clip-rule="evenodd" d="M11.7305 5.05986C11.5406 5.05986 11.3867 4.90595 11.3867 4.71611V3.68164C11.3867 3.4918 11.5406 3.33789 11.7305 3.33789C11.9203 3.33789 12.0742 3.4918 12.0742 3.68164V4.71611C12.0742 4.90595 11.9204 5.05986 11.7305 5.05986Z" fill="#333333"/>
<path fill-rule="evenodd" clip-rule="evenodd" d="M11.7305 18.6673C11.5406 18.6673 11.3867 18.5134 11.3867 18.3235V17.2891C11.3867 17.0992 11.5406 16.9453 11.7305 16.9453C11.9203 16.9453 12.0742 17.0992 12.0742 17.2891V18.3235C12.0742 18.5134 11.9204 18.6673 11.7305 18.6673Z" fill="#333333"/>
<path fill-rule="evenodd" clip-rule="evenodd" d="M8.58696 5.89986C8.46814 5.89986 8.35266 5.83821 8.28892 5.72793L7.77169 4.83209C7.6768 4.66767 7.73307 4.45742 7.89749 4.36253C8.06184 4.26758 8.27209 4.32392 8.36704 4.48834L8.88428 5.38418C8.97923 5.54859 8.92289 5.75884 8.75848 5.85373C8.70441 5.885 8.64532 5.89986 8.58696 5.89986Z" fill="#AFB9D2"/>
<path fill-rule="evenodd" clip-rule="evenodd" d="M15.3911 17.6851C15.2723 17.6851 15.1568 17.6234 15.0931 17.5131L14.5759 16.6172C14.481 16.4528 14.5373 16.2426 14.7017 16.1477C14.8661 16.0527 15.0763 16.1091 15.1712 16.2735L15.6885 17.1694C15.7834 17.3338 15.7271 17.5441 15.5627 17.6389C15.5085 17.6702 15.4495 17.6851 15.3911 17.6851Z" fill="#AFB9D2"/>
<path fill-rule="evenodd" clip-rule="evenodd" d="M8.06958 17.6851C8.01128 17.6851 7.95213 17.6702 7.898 17.6389C7.73359 17.544 7.67725 17.3338 7.7722 17.1694L8.28944 16.2735C8.38433 16.1091 8.59458 16.0527 8.75899 16.1477C8.92341 16.2426 8.97974 16.4528 8.88479 16.6172L8.36756 17.5131C8.30394 17.6234 8.18834 17.6851 8.06958 17.6851Z" fill="#AFB9D2"/>
<path fill-rule="evenodd" clip-rule="evenodd" d="M14.8733 5.89986C14.815 5.89986 14.7559 5.885 14.7017 5.85373C14.5373 5.75884 14.481 5.54859 14.5759 5.38418L15.0931 4.48834C15.188 4.32392 15.3983 4.26758 15.5627 4.36253C15.7271 4.45742 15.7835 4.66767 15.6885 4.83209L15.1713 5.72793C15.1077 5.83815 14.9921 5.89986 14.8733 5.89986Z" fill="#AFB9D2"/>
<path fill-rule="evenodd" clip-rule="evenodd" d="M17.1752 8.20092C17.0564 8.20092 16.9409 8.13927 16.8772 8.02898C16.7822 7.86457 16.8386 7.65432 17.003 7.55943L17.8989 7.04219C18.0633 6.94731 18.2735 7.00358 18.3684 7.168C18.4634 7.33241 18.407 7.54266 18.2426 7.63755L17.3467 8.15479C17.2926 8.186 17.2335 8.20092 17.1752 8.20092Z" fill="#AFB9D2"/>
<path fill-rule="evenodd" clip-rule="evenodd" d="M5.39002 15.0056C5.2712 15.0056 5.15572 14.944 5.09199 14.8337C4.9971 14.6693 5.05343 14.459 5.21779 14.3641L6.11363 13.8469C6.27804 13.752 6.48823 13.8083 6.58318 13.9727C6.67807 14.1371 6.62179 14.3474 6.45738 14.4423L5.56154 14.9595C5.50747 14.9908 5.44839 15.0056 5.39002 15.0056Z" fill="#AFB9D2"/>
<path fill-rule="evenodd" clip-rule="evenodd" d="M6.28579 8.20088C6.22749 8.20088 6.1684 8.18603 6.11422 8.15481L5.21832 7.63758C5.0539 7.54263 4.99757 7.33244 5.09251 7.16802C5.18746 7.00361 5.39765 6.94727 5.56207 7.04222L6.45791 7.55946C6.62232 7.65441 6.67866 7.8646 6.58371 8.02901C6.52015 8.13918 6.40461 8.20088 6.28579 8.20088Z" fill="#AFB9D2"/>
<path fill-rule="evenodd" clip-rule="evenodd" d="M18.0705 15.0056C18.0122 15.0056 17.9531 14.9907 17.8989 14.9595L17.003 14.4422C16.8386 14.3473 16.7822 14.1371 16.8772 13.9727C16.9721 13.8083 17.1823 13.752 17.3467 13.8469L18.2426 14.3641C18.407 14.4591 18.4634 14.6693 18.3684 14.8337C18.3049 14.9439 18.1893 15.0056 18.0705 15.0056Z" fill="#AFB9D2"/>
<path fill-rule="evenodd" clip-rule="evenodd" d="M19.0516 11.3457H18.0171C17.8273 11.3457 17.6733 11.1918 17.6733 11.002C17.6733 10.8121 17.8273 10.6582 18.0171 10.6582H19.0516C19.2414 10.6582 19.3953 10.8121 19.3953 11.002C19.3953 11.1918 19.2414 11.3457 19.0516 11.3457Z" fill="#333333"/>
<path fill-rule="evenodd" clip-rule="evenodd" d="M5.44365 11.3457H4.40918C4.21934 11.3457 4.06543 11.1918 4.06543 11.002C4.06543 10.8121 4.21934 10.6582 4.40918 10.6582H5.44365C5.63349 10.6582 5.7874 10.8121 5.7874 11.002C5.7874 11.1918 5.63349 11.3457 5.44365 11.3457Z" fill="#333333"/>
<path fill-rule="evenodd" clip-rule="evenodd" d="M11.7302 12.1909C11.0729 12.1909 10.5381 11.6561 10.5381 10.9988C10.5381 10.3414 11.0729 9.80664 11.7302 9.80664C12.3876 9.80664 12.9224 10.3414 12.9224 10.9988C12.9224 11.6561 12.3876 12.1909 11.7302 12.1909ZM11.7302 10.4941C11.4519 10.4941 11.2256 10.7205 11.2256 10.9988C11.2256 11.2771 11.4519 11.5034 11.7302 11.5034C12.0085 11.5034 12.2349 11.2771 12.2349 10.9988C12.2349 10.7205 12.0085 10.4941 11.7302 10.4941Z" fill="#333333"/>
<path fill-rule="evenodd" clip-rule="evenodd" d="M15.8206 11.3438H12.5786C12.3888 11.3438 12.2349 11.1898 12.2349 11C12.2349 10.8102 12.3888 10.6562 12.5786 10.6562H15.8206C16.0104 10.6562 16.1644 10.8102 16.1644 11C16.1644 11.1898 16.0104 11.3438 15.8206 11.3438Z" fill="#333333"/>
<path fill-rule="evenodd" clip-rule="evenodd" d="M11.7305 10.4941C11.5406 10.4941 11.3867 10.3402 11.3867 10.1504V6.14844C11.3867 5.9586 11.5406 5.80469 11.7305 5.80469C11.9203 5.80469 12.0742 5.9586 12.0742 6.14844V10.1504C12.0742 10.3402 11.9203 10.4941 11.7305 10.4941Z" fill="#FFC700"/>
</svg>