<svg width="40" height="40" viewBox="0 0 40 40" fill="none" xmlns="http://www.w3.org/2000/svg">
<rect width="40" height="40" fill="white"/>
<path d="M29.8361 10.4922H23.9345V11.6725H29.8361C30.8122 11.6725 31.6066 12.4668 31.6066 13.4431V15.8191C31.1121 15.4443 30.503 15.2136 29.8361 15.2136H10.9509C9.97476 15.2136 9.18033 14.4193 9.18033 13.4431C9.18033 12.4668 9.97476 11.6725 10.9509 11.6725H17.4427V10.4922H10.9509C9.32385 10.4922 8 11.8159 8 13.4431V30.5577C8 32.1847 9.32373 33.5086 10.9509 33.5086H29.8361C31.4631 33.5086 32.787 32.1849 32.787 30.5577V28.7872V20.5249V18.1642V13.4429C32.7868 11.8159 31.4631 10.4922 29.8361 10.4922ZM31.6065 27.607H24.5246C22.8975 27.607 21.5737 26.2832 21.5737 24.6561C21.5737 23.0289 22.8974 21.7052 24.5246 21.7052H31.6065V27.607ZM31.6065 20.525H24.5246C22.2465 20.525 20.3934 22.3787 20.3934 24.6562C20.3934 26.9338 22.2465 28.7874 24.5246 28.7874H31.6065V30.5577C31.6065 31.5338 30.8122 32.3283 29.836 32.3283H10.9508C9.97464 32.3283 9.1802 31.534 9.1802 30.5577V15.8025C9.67361 16.1736 10.2867 16.3938 10.9508 16.3938H29.836C30.8121 16.3938 31.6065 17.1881 31.6065 18.1644V20.525Z" fill="#333333"/>
<path d="M29.8359 12.8516H10.9507V14.0319H29.8359V12.8516Z" fill="#333333"/>
<path d="M20.3937 13.4426C23.0012 13.4426 25.115 11.3288 25.115 8.7213C25.115 6.1138 23.0012 4 20.3937 4C17.7862 4 15.6724 6.1138 15.6724 8.7213C15.6724 11.3288 17.7862 13.4426 20.3937 13.4426Z" fill="#FFC700"/>
<path d="M20.9836 10.4912H19.8033C19.4781 10.4912 19.213 10.2262 19.213 9.90099H18.0327C18.0327 10.8771 18.827 11.6715 19.8033 11.6715V12.2618H20.9836V11.6715C21.9597 11.6715 22.7541 10.8772 22.7541 9.90099C22.7541 8.92475 21.9598 8.13044 20.9836 8.13044H19.8033C19.4781 8.13044 19.213 7.86542 19.213 7.54021C19.213 7.21501 19.4781 6.95024 19.8033 6.95024H20.9836C21.3088 6.95024 21.5738 7.21526 21.5738 7.54047H22.7541C22.7541 6.56435 21.9598 5.76991 20.9836 5.76991V5.17969H19.8033V5.76991C18.8272 5.76991 18.0327 6.56423 18.0327 7.54047C18.0327 8.51671 18.827 9.31102 19.8033 9.31102H20.9836C21.3088 9.31102 21.5738 9.57604 21.5738 9.90124C21.5738 10.2264 21.3088 10.4912 20.9836 10.4912Z" fill="#333333"/>
<path d="M22.7539 24.6534C22.7539 25.6295 23.5482 26.4239 24.5245 26.4239C25.5007 26.4239 26.295 25.6296 26.295 24.6534C26.295 23.6771 25.5007 22.8828 24.5245 22.8828C23.5482 22.8828 22.7539 23.6773 22.7539 24.6534ZM25.1146 24.6534C25.1146 24.9791 24.8495 25.2436 24.5243 25.2436C24.1991 25.2436 23.9341 24.9792 23.9341 24.6534C23.9341 24.3275 24.1991 24.0631 24.5243 24.0631C24.8495 24.0631 25.1146 24.3277 25.1146 24.6534Z" fill="#333333"/>
</svg>
